<svg version="1.2" xmlns="http://www.w3.org/2000/svg" viewBox="0 0 512 512" width="2200" height="2200">
	<title>business-svg</title>
	<style>
		.s0 { fill: #037aad } 
	</style>
	<path id="Layer" fill-rule="evenodd" class="s0" d="m137.5 513c-3.9-3.3-4.9-7.2-4.9-12 0.1-87 0.1-173.9-0.1-260.9 0-7.2 4.2-11.8 11.7-11.7 29.9 0.6 59.9 0.2 89.9 0.3 4.4 0.1 5.9-1.4 5.6-5.8-1.1-12.7 2.2-24.1 12-32.8 6.4-5.7 13.8-9.4 22.5-9.4 32-0.1 64 0 96 0 16 0 32.1 14.1 34 30.1 0.5 4.2 1.7 8.5 1.1 12.8-0.5 4 1.3 5.1 5.2 5.1 30.6-0.1 61.3 0 91.9-0.1 4.4 0 7.8 1.1 10.3 5.2 0.3 93.1 0.3 186.1 0.3 279.2-125 0-250 0-375.5 0zm355.2-118.7c0-16.4 0-32.8 0-49.3-2.4 0.2-3.1 1.5-4 2.4-15.1 14.4-32.9 22-53.9 22-23.6-0.1-47.3 0-71-0.1-3.6 0-5.6 0.8-7 4.6-5.8 15.7-18.1 23.9-34.3 24.2-14.4 0.2-27.1-5.5-34.5-23.8-1.6-4-3.6-5-7.6-5-23 0.2-46-0.1-69 0.1-16 0.2-30.2-4.8-43.6-13.2-5.1-3.1-8.7-7.9-14.4-11.6 0 2.8 0 4.7 0 6.7q-0.1 67 0 134c0 7.3 0 7.4 7.4 7.4q162.2 0 324.5 0c1.1 0 2.3-0.1 3.5 0 2.7 0.1 3.9-1.2 3.9-4-0.1-4.4-0.3-9 0-13.4 0.4-4.7-1.4-6.1-6-6-17.3 0.2-34.6 0.1-51.9 0-7.3 0-11.1-3.6-11.1-10.4-0.1-6.8 3.6-10.2 11.1-10.2 17.4-0.1 34.7-0.2 52 0.1 4.8 0 6.2-1.6 5.9-6.1-0.3-4.3 0-8.7 0-13-0.1-7.3-0.1-7.3-7.6-7.3q-45 0-90 0c-3 0-5.9-0.2-8.3-2.4-3.9-3.6-4-8.1-2.4-12.5 1.4-4.1 4.9-5.9 9.4-5.9 30.8 0.1 61.7-0.1 92.5 0.2 5.1 0 7.1-1.5 6.4-7.5zm-4.6-144.9q-33.8 0-67.5 0-129.7-0.1-259.4-0.1c-7.8 0-7.9 0-7.8 8 0.1 12.2-0.3 24.3 0.8 36.4 1.3 12.9 6 24 14.4 33.7 12.7 14.7 29.3 20.9 48.2 21.2 21.4 0.3 42.9 0 64.4 0.1 3.2 0 4.6-1.1 4.5-4.4-0.2-4.7-0.1-9.3 0-14 0.1-6.1 3.6-9.6 9.7-9.6q26.7-0.1 53.5 0c5.1 0 8.1 2.8 9.6 7.7 1.4 4.8 0.9 9.6 0.7 14.4-0.2 4.6 1.3 6.1 6 5.9 23.7-0.7 47.5 0.5 71.3-0.9 25.4-1.4 49.6-21.9 54.2-47.1 2.8-15.8 1.7-31.8 1.9-47.7 0.1-2.6-1.2-3.7-4.5-3.6zm-157.6-48q-23.5 0-46.9 0c-4 0-8.1 0.4-11.7 1.8-9.2 3.5-10.9 11-10.7 19.9 0.1 4.4 1.4 5.7 5.7 5.6 28-0.1 56 0 84 0 9.3 0 18.6-0.2 27.9 0 3.7 0.1 4.9-1.3 4.9-5 0.2-14.4-7.2-22.2-21.7-22.3-10.2-0.1-20.3 0-31.5 0zm-20.3 141c-2.8 0.3-2.8 2.4-2.8 4.4 0 5.2-0.1 10.3 0 15.5 0.1 5.7 5.1 11.6 10.9 13.3 5.7 1.7 12.2-0.8 15.7-5.6 5.2-7.1 3.2-15.2 3.7-23 0.2-3.5-1.4-4.7-4.7-4.7-7.3 0.2-14.6 0.1-22.8 0.1z"/>
	<path id="Layer" fill-rule="evenodd" class="s0" d="m257.5 1c3.3 2.9 7.2 1.9 10.4 2.4 28.4 4.4 54.8 14.4 79.5 28.8 20.4 11.9 38.6 26.7 54.2 44.3 26.7 30.3 44.9 65.1 52.9 105 0.6 3.2 1.9 6.2 1 9.6-1.3 5.6-3.8 8.6-9.1 9-4.6 0.3-8.5-1.7-10.7-5.9-1.3-2.6-1.7-5.4-2.3-8.1-4.3-17.8-10.2-35-18.4-51.4-3-5.9-6.5-9.5-13.8-8.5-5.4 0.8-11 0.3-16.4 0.1-3.2 0-4.6 1-4.5 4.3 0.4 15.7-13.1 29.5-30 29-22.5-0.8-45-0.2-67.5-0.2-20.3-0.1-35.9-12.5-40.6-32.2-1-4.3-0.5-8.6-0.5-12.9-0.1-11-0.2-22 0-33 0.1-3.7-1.2-4.9-4.9-5-8.5-0.2-17 1-25.4-1-13.9-3.4-25.7-18.1-25.7-32.4-0.1-3.8-0.1-7.6 0-11.5 0-3.2-1-4.4-4.5-3.6-20.3 4.9-39.5 12.6-57.3 23.4-3.7 2.2-7.3 4.6-11 6.9-6.1 3.9-13.6 3-16.9-2.1-3.3-5.3-1.4-12.5 4.7-16.5 22.1-14.3 45.7-25.5 71.4-32.1 9.1-2.3 18.5-3 27.7-6.1 19.2-0.3 38.2-0.3 57.7-0.3zm4.8 69.9c0.6 16.6-1.1 33.3 1 49.8 1.1 8.8 9.3 16.8 18.3 16.9 22.8 0.2 45.6 0.1 68.4 0 5.8 0 8.5-2.9 8.6-8.7 0.1-4.2 0-8.3 0.1-12.5 0.2-7.1 3.8-10.7 10.8-10.7 7-0.1 14 0 21-0.1 1.5 0 3.4 0.7 4.6-1.5-0.4-0.6-0.7-1.3-1.2-1.9-8.5-10.7-17.8-20.6-28.2-29.5-24.4-21.1-52.2-35.5-83.3-44-22.7-6.2-45.9-6.8-69.1-6.3-4 0.1-6.3 1.5-6 6 0.3 4 0 8 0.1 12 0.1 7.9 6.3 14.2 14.2 14.2 7 0.1 14-0.1 21 0.1 11.2 0.3 17.1 4.9 19.7 16.2z"/>
	<path id="Layer" class="s0" d="m1 200.5c2.6-2.1 1.4-4.7 1.7-6.9 4.5-25 12.1-48.9 24.1-71.3 3.4-6.4 9-8.6 15-5.8 5.5 2.6 7.7 9.2 4.6 15.3-8.3 16.9-15.1 34.2-19.3 52.6-5 21.9-5.8 44-3.9 66.3 0.6 7.1 1.7 14.1 3.1 21.1 0.4 2 0.9 3.7 3.1 3.7 11.8 0 23.7 1.4 35.1-2.7 13.3-4.7 22.7-17.9 23.2-31.9 0.6-14.9 8.1-27.5 29.3-29.3 14.4-1.1 20.2-14.2 18.2-25.9-2.3-13.7-9.8-19.3-23.9-19.3-12.7 0-25.4 0-38 0-6-0.1-10-3.3-10.6-8.4-0.8-7.1 1.6-10.8 8.1-12.7 3.5-1 7-0.6 10.4-0.6 10.9-0.1 21.7-0.2 32.5 0 15.7 0.3 28.7 5.9 37.3 19.8 5.2 8.5 6.6 17.8 6.2 27.3-0.4 10-3 19.5-9.9 27.5-7.2 8.3-16.1 13.2-27 14-7.3 0.5-10.8 3.2-10.9 9.5-0.5 24.5-18.5 46.5-42.8 52.5-9.5 2.3-19.1 2.1-28.8 2.1-1.1 0-2.2 0.2-3.6 0.3 0.4 4.4 2.1 8.3 3.8 12 9 20.4 20.3 39.4 35.1 56.3 10.4 11.9 21.8 22.7 34.7 31.9 7.2 5.1 9.5 11.7 5.9 17.3-3.4 5.5-9.6 7.1-15.5 3.2-5.4-3.5-10.5-7.5-15.5-11.7-16.2-13.6-30.6-29-42.5-46.6-13.4-20-23.8-41.4-30.5-64.6-4.2-14.6-7.5-29.5-8.6-45.1-0.1-16.8-0.1-33.1-0.1-49.9z"/>
	<path id="Layer" class="s0" d="m76 88.6c-2.4 5.9-6.9 7.3-12.3 6.7-4.2-0.4-6.6-2.9-8-6.5-1.7-4.6-0.2-9.5 3.6-12.4 4.4-3.3 9.1-3.8 13.3-0.5 4 3.1 5.4 7.4 3.4 12.7z"/>
	<path id="Layer" fill-rule="evenodd" class="s0" d="m251.2 399c3.4 4.5 4.4 9.7 5 14.7 0.8 7.7-4.6 11.6-15.2 11.8 7.6 5.9 14 12.2 14.7 22.6 0.7 10.3-2.4 18.6-10.2 25-4.1 3.4-8.8 5.7-12.2 10.4-4.8 6.5-14.3 5.3-17.7-1.8-1.4-2.8-3.5-4-6-5.5-9.2-5.3-14.9-12.9-14.9-24-0.1-8.1 2.7-11 10.8-11.6 0.7 0 1.3-0.2 2.6-0.4-3-3.1-6-5.7-8.3-8.7-9.7-13.2-6.7-32.6 9.8-41.8 2.7-1.5 4.7-3.2 6.2-6.1 3.4-6.6 13.2-7.4 17.6-1.1 2.9 4.2 6.4 6.9 10.5 9.3 2.9 1.7 5.3 4 7.3 7.2zm-36.9 43.2c-1-0.3-1.9-1.2-3.3-0.4 3.7 2.4 4.4 6.1 5.4 9.8 1.1 4.1 5.7 7.3 9.3 6.8 4.6-0.6 8.2-3.7 7.9-7.4-0.4-5.1-4.2-6.1-8.4-6.7-3.4-0.6-6.8-1.3-10.9-2.1zm9.5-20.5c4.5 1.6 9.4 0.4 14 2.4-2.5-3.5-3.1-7.4-4.4-11.1-1.5-4.4-5.3-5.2-9.2-4.8-3.6 0.3-7.2 1.8-7.7 5.9-0.5 4.4 2.8 6.3 7.3 7.6z"/>
	<path id="Layer" class="s0" d="m358.8 449.7c5.2 4.6 6.3 11.6 2.7 16.2-3.2 4-10.5 4.9-14.9 1.9-3.7-2.5-5.5-8-3.7-13 1.5-4 4.6-6.4 9.2-6.1 2.2 0.1 4.4-0.5 6.7 1z"/>
	<path id="Layer" class="s0" d="m404.2 462.9c-3.8 6.2-8 8-13.8 6.2-4.1-1.3-6.8-5.4-6.7-10.5 0-7.1 4.5-10.6 12.8-9.9 5.3 0.4 9.2 6 8.3 11.9-0.1 0.6-0.3 1.2-0.6 2.3z"/>
</svg>