<svg version="1.2" xmlns="http://www.w3.org/2000/svg" viewBox="0 0 512 512" width="512" height="512">
	<title>globe-svg</title>
	<style>
		.s0 { fill: #037aad } 
	</style>
	<path id="Layer" fill-rule="evenodd" class="s0" d="m285.6-0.3q1.3 0 2.6 0c20.6 0.1 39.2 2.9 58.8 9.3q1.1 0.3 2.2 0.7c16.2 5.4 32 13.1 45.8 23.3q1.6 1.1 3.2 2.3c7.7 5.8 14.8 12.1 21.8 18.7q1.3 1.2 2.6 2.4c31 29.9 52.4 75.5 53.6 118.8q0 2.1 0 4.3 0 1.1 0 2.3 0 3.8 0 7.5 0.1 1.3 0.1 2.6c-0.1 12.6-0.5 24.8-3.3 37.1q-0.2 1.1-0.5 2.3c-6.2 27.7-18.4 53.1-35.5 75.7q-1.1 1.5-2.3 3.1-2.3 3-4.7 5.9c1.3 3 2.8 5.1 5.1 7.3 1 1 1 1 2 2q1 1 2 2 1.1 1 2.2 2.1 3.3 3.3 6.7 6.7 3.4 3.3 6.7 6.6 2.1 2.1 4.2 4.2 1 0.9 2 1.9 0.8 0.8 1.7 1.7c3.4 3.6 4 6.3 3.9 11.1-1 4.6-4.1 7.3-7.5 10.4q-1.3 1.3-2.7 2.6c-15.8 15.1-34 27.1-53.3 37.4q-0.9 0.5-1.9 1c-31.5 16.9-68.3 27-104.1 27 0 17.2 0 34.3 0 52 3.8-0.1 7.7-0.1 11.6-0.2q5.6 0 11.2-0.1 3.9 0 7.8-0.1 5.5-0.1 11.1-0.1c1.7 0 1.7 0 3.5-0.1 8 0 8 0 12 3 2.1 3.1 2.8 4.8 2.8 8.6-1.4 4.3-2.1 6.4-6 9-2.4 0.3-2.4 0.3-5.3 0.3q-1.6 0-3.3 0-1.8 0-3.6 0-1.9 0-3.8 0-5.2 0.1-10.4 0.1-3.2 0-6.5 0-11.3 0-22.6 0-10.5 0-21.1 0.1-9 0.1-18.1 0.1-5.4 0-10.8 0-6 0-12 0-1.8 0-3.7 0c-8.9 0-8.9 0-12-3-1.9-2.8-2.5-4.2-2.4-7.6q0-1.2-0.1-2.5c0.8-2.7 1.8-4.5 3.8-6.4 4.3-2.5 9.7-1.7 14.4-1.6q1.8 0 3.7 0 5.8 0.1 11.6 0.2 4 0 7.9 0.1 9.6 0 19.3 0.2c0-17.2 0-34.3 0-52-4 0-7.9 0-12 0-39.4-3.3-76.3-16.4-110.3-36.4q-1.2-0.8-2.5-1.5c-5.2-3.2-9.2-6-11.1-12-0.1-4.7 1.5-7.6 4.6-11 3.4-1.6 6.6-1.7 10.3-1.1 3 1.3 5.7 3.1 8.4 4.9q2.4 1.6 4.8 3.1 1.2 0.7 2.5 1.5c47.7 29.9 109.7 38.3 164.3 26.2 40-9.3 74.4-27.5 105-54.7-8.6-8.6-17.2-17.2-26-26-3.7 2.2-6.4 4.1-9.6 6.9-33 27.2-75.7 40.6-118 40.4q-1.2 0-2.4 0c-52.4-0.2-99.9-21.6-136.7-58.7-5.6-5.8-10.5-12.1-15.3-18.6q-0.6-0.9-1.3-1.7c-23.4-32.6-35.2-71-35-110.9q0-1.2 0-2.4c0.2-46.9 17.4-89.2 47.3-125-5-6-10.3-11.5-15.9-16.9q-1.3-1.3-2.6-2.7-3.3-3.2-6.5-6.4c-22.1 10.6-38.6 51-46.4 72.5-9.3 26.3-14 52.3-13.9 80.1q0 1.4 0 2.8c0 13.7 0.4 27.1 3.3 40.6 0.3 1.4 0.3 1.4 0.6 2.9 6.7 30.7 19 58.9 36.4 85.1 0.4 4.5 0.6 6.9-1.6 10.9-3.1 2.7-5.3 3.5-9.4 4.1-5.1-1.1-7.3-3-10.4-7.2-18.5-28.6-31.3-60.2-37.6-93.8q-0.2-1.2-0.5-2.5c-5.7-29.4-4.9-63.3 1.5-92.5 0.3-1.5 0.3-1.5 0.7-3.1 9.1-41.8 28-79.8 56.3-111.9q1.2-1.4 2.5-2.8 3.2-3.7 6.5-7.2 0.8-0.9 1.6-1.7c2.6-2.6 5.1-3.7 8.6-4.2 4.2 0.4 6.2 1.7 9.2 4.6q1.3 1.2 2.7 2.4c5.7 5.6 11.4 11.3 17 17q1.9 1.9 3.8 3.7 4.5 4.6 9.1 9.2c4-1.5 6.7-3.2 9.9-6.1 32.8-27.3 75.5-40.4 117.7-40.2zm11.4 21.3q-2.3 6.9-4.5 13.8c-5.5 17.5-13.1 33.5-22.5 49.2q8.1 6.6 16.4 12.9c9 6.9 17.7 14.1 26 21.7q3.5 3.2 7 6.3c2.7 2.3 5.2 4.6 7.6 7.1 2.8-1.3 4.9-2.6 7-4.8q0.9-0.8 1.7-1.7 1-0.9 1.9-1.9 1-1 2-2 3.2-3.2 6.4-6.5 2.3-2.2 4.5-4.4 5.9-6 11.8-11.9 6.1-6 12.1-12.1 11.8-11.8 23.6-23.7c-25.8-26-64.8-40.5-101-42zm-101 25q0 1 0 2c1.5 0.4 1.5 0.4 3 0.8 16.5 4.4 31.6 11.5 46.4 20.1 3.6 2.3 3.6 2.3 7.6 3.1 15.1-24.1 15.1-24.1 22-51-27.8-0.7-55.5 11.1-79 25zm-31.4 25.6c-5.6 12.2-0.7 26.4 3.6 38.5 2.5 6.6 5.7 12.9 8.9 19.2q0.8 1.5 1.6 3c2.4 4.6 4.5 8.2 8.3 11.7 19.5-16.6 37.8-33.3 53-54-6.4-4.5-13-8.2-20.1-11.6q-1.5-0.7-3.1-1.4c-26.6-12.8-26.6-12.8-52.2-5.4zm248.4 6.4c-22.8 22.8-45.5 45.5-69 69 1.8 3.6 2.9 5.1 5.7 7.8 4 3.9 7.7 7.9 11.3 12.2q1.2 1.4 2.4 2.8c7.1 8.2 13.7 16.7 20.2 25.3q4.1 5.5 8.4 10.9c1.2-0.7 1.2-0.7 2.4-1.4 15.8-9.3 31.8-16.4 49.2-21.8 3.8-1.2 7.6-2.5 11.4-3.8-0.6-35.9-16.5-75.5-42-101zm-271 22c-13.9 23-25.8 51.6-25 79 17.9-3.6 35.8-11.9 51-22-0.6-3-1.6-5.3-3.2-8q-0.7-1.2-1.3-2.3-0.8-1.3-1.5-2.6c-4.2-7.4-7.8-14.8-11-22.7-0.5-1.3-0.5-1.3-1.1-2.6-2.4-6.2-4.3-12.4-5.9-18.8q-1 0-2 0zm115 2c-1.6 1.8-1.6 1.8-3.4 4.1-13.7 17.5-28.8 34.4-46.6 47.9q-2.6 2-5.2 4.1-1.9 1.4-3.8 2.9c1.6 5.3 5 9.2 8.4 13.5q1 1.2 1.9 2.4c8.2 10.4 16.8 20.3 25.7 30.1q2.5 2.8 5.1 5.6 1.1 1.3 2.2 2.6 0.9 0.9 1.7 1.8c4.7-4 9.2-8.1 13.6-12.5q0.9-0.9 1.8-1.8 3.1-3 6.1-6.1 2.1-2.1 4.2-4.2 5.5-5.5 11-11 5.6-5.7 11.2-11.3 11.1-11 22.1-22.1-1.4-1.7-2.8-3.3-0.8-0.9-1.6-1.9c-7.2-8.2-16.1-15-24.6-21.8q-1.8-1.5-3.7-3c-10.8-10.3-10.8-10.3-23.3-16zm71 61c-22.8 22.8-45.5 45.5-69 69 5.1 6 10.1 10.9 16 16q1.5 1.4 3.1 2.7c9.2 8.1 18.9 15.5 28.8 22.8q2.2 1.5 4.2 3.3 0.9 0.6 1.9 1.2c3.4-1.1 3.9-1.9 5.9-4.7 13.3-17.4 28.6-34.1 46.1-47.3q2.6-2 5.2-4.1 1.9-1.4 3.8-2.9c-1.6-5.1-4.7-8.8-7.9-13q-0.9-1.1-1.8-2.3c-7.4-9.4-15.1-18.5-23.2-27.4-2.6-2.8-5-5.7-7.5-8.6-1.9-2.1-1.9-2.1-5.6-4.7zm-154.2 14.1c-17.4 10.7-36.5 19.3-56.8 22.9 0.6 35.9 15.9 70.4 38 98.2 2 2.3 2 2.3 6 1.8 2.4-2 4.5-4 6.6-6.2q1-0.9 2-1.9 3.2-3.3 6.4-6.6 2.3-2.2 4.5-4.5 5.9-5.9 11.8-11.9 6-6 12.1-12.1 11.8-11.9 23.6-23.8c-1.4-3-2.9-5.1-5.2-7.5-0.9-1-0.9-1-1.9-2q-0.9-1-2-2.1c-5.9-6.2-11.5-12.6-16.9-19.4q-1.4-1.8-2.9-3.6c-5.8-7.1-11.3-14.4-16.4-22.1q-0.8-1.1-1.7-2.3c-2.9 0-4.8 1.6-7.2 3.1zm230.2 45.9c1.4 4.8 3.5 8.8 6.1 13.1 7.9 13.7 14.2 28.4 17.9 43.9q1 0 2 0c14.5-24.5 23.8-50.4 25-79-16.8 0-37.3 13.1-51 22zm-19 13c-19.5 16.6-37.8 33.2-53 54 18.4 12.1 44 26.8 66.8 23.5 3.6-0.8 5.6-1.9 8.2-4.5 4.7-8 3.2-17.2 1.1-25.8-3.8-13.2-9.6-25.5-15.9-37.6q-0.5-1.1-1.1-2.2c-1.8-3.3-2.9-5.3-6.1-7.4zm-146.6 16.3q-0.9 1-1.9 1.9-1 1-2 2.1-3.3 3.3-6.6 6.6-2.3 2.3-4.5 4.5-6.1 6.1-12.1 12.1-6.1 6.2-12.2 12.3-12.1 12.1-24.1 24.2c7.9 16.9 38.7 28.4 55.4 34.6 14.7 5 30.1 8.1 45.6 8.4q0.4-1.8 0.9-3.6c5-20.2 13-38.4 23.8-56.1 1.5-2.2 1.5-2.2 1.3-4.3-2-1.5-3.9-2.9-6-4.3-8.4-5.8-16.2-12.2-24-18.7q-0.9-0.7-1.7-1.4c-7.2-6-14.1-12.1-20.8-18.5-5.2-5-6-4.8-11.1 0.2zm80.6 55.7c-15.1 24.1-15.1 24.1-22 51 27.4-0.5 56.2-9.8 79-25q0-1 0-2-1.4-0.4-2.8-0.8c-16.2-4.7-31.6-11.1-46-20.1-3.8-2.5-3.8-2.5-8.2-3.1z"/>
	<path id="Layer" class="s0" d="m121 350c3.2 2.3 4.6 3.8 5.9 7.4 0.1 4.3-1.1 7.4-3.4 11-4 2.6-7.9 2.4-12.5 1.6-3.1-1.9-3.1-1.9-5-5-1-5-0.8-8.7 1.9-13.1 4.4-2.7 8.1-2.9 13.1-1.9z"/>
</svg>