<svg version="1.2" xmlns="http://www.w3.org/2000/svg" viewBox="0 0 512 512" width="512" height="512">
	<title>goal-svg</title>
	<style>
		.s0 { fill: #037aad } 
	</style>
	<path id="Layer" fill-rule="evenodd" class="s0" d="m456 0c3.9 1.7 5.4 3.1 7 7 0.4 2.7 0.4 2.7 0.6 5.8 0.1 1.6 0.1 1.6 0.2 3.3q0.1 1.8 0.3 3.5 0.2 3.5 0.4 6.9 0.1 1.5 0.2 3c0.2 2.5 0.2 2.5 1.3 4.5q0.7-0.7 1.4-1.5 3.3-3.2 6.5-6.4 1.1-1.2 2.2-2.3 1.1-1.1 2.2-2.2c1-1 1-1 2-2 2.3-2.1 3.4-2.6 6.5-3 3.2 0.4 3.2 0.4 6.1 2.5 2.1 2.9 2.1 2.9 2.9 5.7-1.2 4.9-4.3 7.7-7.8 11.2q-1.3 1.3-2.7 2.7-3.6 3.7-7.3 7.3c1.7 1.7 4.2 1.3 6.6 1.4q1.7 0.1 3.5 0.3 3.6 0.2 7.3 0.4 1.7 0.1 3.5 0.2c1.5 0.1 1.5 0.1 3.2 0.2 3.2 0.6 5.2 1.6 7.9 3.5 2.7 4.1 2.9 8.3 2 13-1.2 1.8-1.2 1.8-2.8 3.6q-1 1-2 2.1-6.6 6.9-13.4 13.7-0.8 0.8-1.6 1.6-4.2 4.2-8.4 8.4-4.3 4.3-8.6 8.7-3.3 3.3-6.6 6.7-1.6 1.6-3.2 3.2-2.2 2.2-4.4 4.4-1.3 1.3-2.6 2.6c-4.7 3.9-8.7 4.2-14.7 4.2q-1 0-2 0-3.3 0-6.5-0.1-2.2 0-4.4 0-5.4 0-10.8-0.1 1 1.3 2 2.6c39.2 49.9 58.1 112.6 50.7 175.9-3.5 27.1-10.5 53-22.7 77.5q-0.6 1.2-1.2 2.4c-5.7 11.6-12.1 22.3-19.8 32.6q-0.7 0.9-1.4 1.8c-6.6 8.9-13.9 17.2-21.6 25.2-0.7 0.7-0.7 0.7-1.4 1.5-6.5 6.7-13.2 12.9-20.6 18.5q-0.9 0.7-1.9 1.5c-22.5 17.1-47.1 30-74.1 38.5q-1.3 0.4-2.6 0.8c-51.8 16.2-109.3 12.6-159.4-7.8-1.1-0.5-1.1-0.5-2.3-0.9-18.6-7.6-35.7-17.9-51.7-30.1q-1-0.8-2-1.5c-4.8-3.8-4.8-3.8-5.8-6.9 0.1-1.2 0.1-1.2 0.2-2.3q0-1.1 0.1-2.2c0.6-2.6 1.4-3.5 3.5-5.1 5.1-1.1 7.5-1 11.9 1.9 2.2 1.7 4.4 3.5 6.5 5.3 39.8 32.5 97.3 46.4 147.8 42.1 56.7-5.8 112.4-31.1 149.2-75.5q2.3-2.9 4.6-5.8 1.2-1.5 2.4-3c25.3-31.7 41.3-71.7 45.6-112q0.2-1.5 0.3-3c5.3-55.6-11.2-114.5-46.7-157.9q-5.2-6.2-10.6-12.1c-7.1 5.8-13.5 12.4-19.9 18.9q-1.8 1.7-3.6 3.5-4.2 4.3-8.5 8.6c1.3 3.4 2.4 5.8 5 8.4 25.5 28.4 40.3 71.1 39.3 109.2-0.3 2.4-0.3 2.4-1.8 5.7-3 2.1-4.9 2.3-8.5 2.3-2.9-0.9-4.1-2.3-6-4.6-0.7-2.8-0.7-2.8-0.9-6q-0.1-1.8-0.3-3.6c-0.1-1.9-0.1-1.9-0.2-3.8-3-33.2-14.1-64.6-36.2-89.8-2.4-2.8-2.4-2.8-2.4-4.8-7.4 6.2-14.2 13.1-21 19.9q-1.8 1.8-3.5 3.6-4.3 4.2-8.5 8.5c2 3.4 4.2 6.7 6.5 10 16.8 24.2 22.6 53.3 18.2 82.3-3.7 19.4-11.7 37.8-24.7 52.7q-1 1.2-2.1 2.5c-17.3 20-41.8 32.7-67.9 36.5-14.8 0.7-30.7 1.4-45-3q-1-0.3-2-0.6c-15.3-4.6-28.9-11.9-41-22.4-1-0.8-1-0.8-2.1-1.7-21.2-17.5-33.2-44.8-36.5-71.7-2.7-28.6 5.7-57.9 23.7-80.3q0.9-1.1 1.9-2.3 1-1.2 2-2.4c18.1-20.9 43.7-34 71.1-37.3q2.4-0.2 4.9-0.3 1.7-0.1 3.5-0.2c25.7-0.6 50.9 6.6 71.3 22.5 2 1.5 3.9 2.6 6.2 3.7q6.6-6.6 13.2-13.1 2.2-2.3 4.5-4.5 3.2-3.2 6.4-6.4 1-1 2.1-2 0.9-1 1.8-1.9 0.9-0.8 1.7-1.7c1.4-1.4 1.4-1.4 2.3-3.4q-0.9-0.4-1.7-0.8c-2.5-1.3-4.3-2.8-6.4-4.6-31-25.2-72.7-37.1-112.4-33.1-42.1 4.9-81 24.8-107.9 58.1-8.3 10.7-15 22.1-20.6 34.4q-0.4 0.9-0.8 1.9c-16.1 35.9-17.6 78.5-4 115.5 7.2 18.7 16.8 35.4 29.8 50.6q1.1 1.3 2.3 2.7c5.7 6.5 11.8 12.1 18.7 17.3q1.3 1 2.6 2.1c33.7 25.3 74.9 35.5 116.5 30.3 41.9-6 80-28.6 105.4-62.5 12.6-17.3 21.1-36.3 26.5-57q0.3-1.3 0.6-2.6 0.3-1.1 0.6-2.3c0.9-2.3 1.9-3.5 3.8-5 4-1.1 6.1-1.4 9.9 0.4 3 3.8 2.5 6.9 2.1 11.6-0.6 3.4-1.5 6.6-2.5 9.9q-0.4 1.4-0.8 2.8c-2.8 9.1-6.5 17.7-10.7 26.3q-0.5 1-1 2c-7.7 15.8-18.2 29-30 42-1 1.2-1 1.2-2.1 2.3-27.9 29.3-71.2 48.9-111.4 50q-5.9 0-11.7 0-1.2 0-2.5 0c-12 0-23.6-0.4-35.3-3.3q-1.2-0.3-2.5-0.6c-28.6-7-54.5-20.3-76.2-40.3-2.1-1.9-4.3-3.8-6.5-5.7-4-3.5-7.4-7.3-10.8-11.4-1.2-1.4-1.2-1.4-2.3-2.9-29-36.1-42.8-83-37.7-129.1 5.9-45.4 27.8-87.8 63.9-116.6 38.5-29.5 84.8-43.3 133.2-37.1 35.2 5 65.6 20.2 92.9 42.7 2.9-1.3 4.9-2.7 7.1-4.9q0.9-0.9 1.8-1.7 0.9-1 1.8-1.9c1-1 1-1 2-2q3-3 6.1-6.1 2-2.1 4.1-4.2 5.1-5.1 10.1-10.2c-3.9-4.9-3.9-4.9-8.5-9q-1-0.8-2-1.5c-1.1-0.8-1.1-0.8-2.1-1.6q-1.1-0.9-2.3-1.7c-47.8-35.5-106.5-51.2-165.5-43.2-10.7 1.6-21.2 4.1-31.6 7q-1.2 0.3-2.4 0.7c-41.5 11.9-80 38.5-106.6 72.3q-1.2 1.4-2.4 2.9c-27.4 34.2-45.4 80-45.8 124q-0.1 1.3-0.1 2.5c-0.5 55.5 14.6 109.3 51.9 151.6q1.3 1.4 2.5 2.9 1.1 1.2 2.3 2.5c2.1 3.4 2 5.7 1.6 9.6-1.5 2.4-1.5 2.4-4 4-4 0.8-6.3 1.1-9.8-1.2-2.3-2.1-4.2-4.4-6.2-6.8q-0.7-0.9-1.4-1.7c-12.6-15.6-23.2-32.2-31.6-50.3q-0.5-1-1-2.1c-14.9-31.2-21.5-64.8-21.4-99.2q0-1.5 0-2.9c0.1-15.9 0.9-31.2 4.4-46.8q0.4-1.6 0.7-3.2c10-43.4 31.6-81.8 62.3-113.8 0.7-0.7 0.7-0.7 1.4-1.5 41.7-43.4 102.2-68.3 162.1-69.7 42.5-0.3 83 9.1 120.5 29.2q0.9 0.5 1.8 1c12.7 6.8 23.9 15.2 35.2 24q0-1.4 0-2.8-0.1-5-0.2-10.1 0-2.2 0-4.4-0.1-3.2-0.1-6.3 0-1.9 0-3.9c0.6-6.5 4-10.6 8.6-15.1q0.7-0.8 1.6-1.6 2.5-2.6 5.1-5.2 1.8-1.8 3.6-3.6 3.8-3.7 7.6-7.5 4.8-4.8 9.7-9.6 3.7-3.7 7.4-7.4 1.8-1.8 3.6-3.6 2.5-2.5 5-4.9 0.7-0.8 1.5-1.5c4.7-4.7 8-5.1 14.6-4.5zm-25.9 38.1q-3.9 3.8-7.8 7.5-3.8 3.6-7.5 7.2-2.1 2.1-4.3 4.1c-5 5-7.1 8.2-7.1 15.5q0.2 3.3 0.6 6.6 0.1 2.4 0.2 4.9 0.2 2 0.3 4 0.1 1 0.1 2.1 0.2 2.5 0.4 5 3.5-3 7-6 1-0.9 2.1-1.8c23.8-18.3 23.8-18.3 37.8-43 0.5-7.7-1.2-15.1-3.9-22.2-5 0-14 12.3-17.9 16.1zm8.5 44.1c-2.4 2.7-4.9 5.3-7.4 8-8.9 7.8-8.9 7.8-14.2 16.8q3.3 0.3 6.6 0.5c1.8 0.1 1.8 0.1 3.7 0.3q1 0 2.1 0.1 3 0.1 6 0.5c6.9 0.4 11.7 0.4 17.3-4.3q2.6-2.7 5.2-5.5 1.4-1.4 2.8-2.9 3.7-3.7 7.3-7.6c2.4-2.6 4.9-5.2 7.4-7.7 9.1-7.7 9.1-7.7 14.6-16.4-23.9-5.5-35.6 0.1-51.4 18.2zm-262.6 119.8q-1.2 1-2.4 2c-19.1 16.3-30 39.6-32.3 64.4-1.7 25.7 6.6 48.7 22.7 68.6q1.2 1.6 2.4 3.2c17.5 18.8 42.2 29.7 67.7 30.8 23.5-0.2 46.2-7.2 63.9-23q1.2-1 2.4-2c19-15.9 29.4-39.7 31.6-64 1.6-24.5-6.5-49-22-68-4.8 4-9.2 8.1-13.6 12.5q-0.9 0.9-1.8 1.8-2.8 2.8-5.5 5.6-1.9 1.9-3.8 3.8-4.7 4.6-9.3 9.3c0.6 1.3 0.6 1.3 1.3 2.7q0.8 1.7 1.6 3.5 0.8 1.7 1.7 3.5c5.5 12.7 4.3 26.2-0.6 39-5.7 12.4-14.9 19.6-27.4 24.6-13.3 4.4-26.3 2.7-38.9-2.9-3.8-2-6.6-4.5-9.7-7.4q-1 0-2 0-0.4-0.9-0.8-1.7c-1.2-2.3-2.6-4.3-4.1-6.4-7.6-11.4-9.4-24.1-7-37.5 3.4-12.5 10.4-23.2 21.4-30.1 12.6-6.7 25.4-7.9 39.2-4.4 4.9 1.7 9.6 4 14.3 6.1 10.9-10.9 21.8-21.8 33-33-11.9-11.9-29.6-19.1-46-22q-1.9-0.3-3.9-0.7c-26.1-2.6-51.9 4.6-72.1 21.7zm34.6 53.9c-5.2 7.6-7.5 15.9-5.9 25.1 2.2 9.7 7 16.6 15.2 22.3 7.4 4.2 16 5.5 24.3 3.7 9.3-2.8 15.8-7.7 20.8-16 3.8-7.2 5.5-15 3.1-23q-1.5-4-3.1-8c-3.6 1.5-5.8 3.6-8.5 6.3q-1.2 1.3-2.5 2.6c-1.3 1.3-1.3 1.3-2.6 2.7q-2.6 2.6-5.2 5.2c-1.1 1.2-1.1 1.2-2.3 2.4-2.7 2.5-3.6 2.8-7.3 3-3.6-0.2-3.6-0.2-5.5-1.3-1.8-3.2-1.7-5.2-1.1-8.9 1.9-3.1 4.4-5.5 7-8q1.9-1.9 3.8-3.8 5.6-5.7 11.2-11.2c-0.5-1.5-0.5-1.5-1-3-14.2-6.7-30.7-2.3-40.4 9.9z"/>
</svg>