<svg version="1.2" xmlns="http://www.w3.org/2000/svg" viewBox="0 0 512 512" width="512" height="512">
	<title>group-svg</title>
	<style>
		.s0 { fill: #037aad } 
	</style>
	<path id="Layer" fill-rule="evenodd" class="s0" d="m345.4 266.4c4 3.4 4 3.4 8.6 5.6 2.2-0.9 2.2-0.9 4.4-2.5 13.8-8.8 30.2-13.9 46.6-14.5 1.4-0.1 1.4-0.1 2.7-0.1 25.8-0.6 49.4 7.9 69.3 24.1q0.9 0.7 1.8 1.4c18.2 14.2 30.2 39 33.2 61.6 0.4 6.8 0.3 13.7 0.4 20.5q0 3.4 0 6.7 0.1 4.9 0.1 9.7 0.1 1.5 0.1 3c0 7.4-1.9 12.3-7.1 17.6-6.1 5.5-11.4 5.8-19.2 5.7-1.5 0-1.5 0-3 0q-4.8 0-9.7 0-3.3 0-6.7 0-8.8 0-17.6-0.1-9 0-18 0-17.6 0-35.3-0.1 0 1.9 0 3.8c0 9.7-2.8 15.8-9.4 22.7-6.7 6.1-13.9 6.9-22.5 6.9q-1.4 0-2.9 0-4.8 0-9.6 0-3.5 0-6.9 0-9.4 0-18.8 0-7.9 0-15.7 0-19.6 0.1-39.2 0-17 0-34 0.1-17.4 0-34.9 0-9.8 0-19.6 0-9.2 0-18.4 0-3.4 0-6.8 0-4.6 0-9.2 0-1.3 0-2.7 0c-8-0.1-15.2-2.2-21.3-7.8-5.5-6.1-7.2-11.6-8.1-19.7q-1.9 0-3.8 0-17.6 0.2-35.2 0.3-9 0.1-18.1 0.2-8.7 0-17.5 0.1-3.3 0-6.6 0c-21 0.3-21 0.3-28.2-5-4.4-4.4-6.7-8.7-6.8-15.1q0-1.3 0-2.7 0-1.5 0-3c-0.1-1.5-0.1-1.5-0.1-3.1q0-3.2 0-6.5 0-3.3-0.1-6.6c-0.4-31.7 8.3-56.7 30.5-80.1 21.5-21 48.7-28 77.9-27.7 17.2 0.4 33 6.1 48 14.2 0.6-0.7 0.6-0.7 1.2-1.4 48.8-51.7 134.7-52.1 188.2-8.2zm-182.5 27.8c-19.4 22.7-29.2 50.6-29.2 80.3q0 1.6-0.1 3.4 0 3.5 0 7 0 5.4 0 10.8-0.1 3.5-0.1 6.9 0 1.6 0 3.2c0 5.9 0 5.9 2.3 11.3 3.3 2.8 5.9 4.1 10.2 4.2 1.2 0 1.2 0 2.5 0q1.3 0 2.6 0 1.4 0 2.8 0 4.7 0 9.4 0 3.3 0 6.7 0 9.1 0 18.2 0 7.7 0 15.3 0.1 16.9 0 33.8 0c1 0 1 0 2.1 0 1 0 1 0 2 0q16.5 0 33 0 16.9 0.1 33.9 0.1 9.5 0 19 0 8.9 0 17.8 0 3.3 0 6.6 0 4.5 0 8.9 0 1.3 0 2.7 0c5.4 0 8.5-0.9 12.7-4.5 2.2-3.2 2.3-4.1 2.3-7.8q0-1.5 0-3 0-1.6 0-3.2c0-1.7 0-1.7 0-3.4q0-3.5 0-7.1 0-5.3 0.1-10.6c0-16-0.6-31.7-6-47q-0.4-1.1-0.8-2.2c-11.6-32.1-36.3-56.5-66.9-70.9-49.8-22.2-105.6-6.1-141.8 32.4zm203.1-9.2c0 4.1 2.2 6.4 4.5 9.7 17.9 26.1 23.3 53.6 25 84.7 0.1 1.2 0.1 1.2 0.2 2.5q0.1 3 0.3 6.1 18.5 0.1 37 0.2 8.5 0 17.1 0 8.3 0.1 16.6 0.1 3.1 0 6.3 0 4.4 0 8.8 0 1.3 0.1 2.7 0.1c3.5 0 5.9-0.1 9-1.7 2.5-2.8 2-6 2-9.6q0-1.1 0-2.3 0-2.5 0-5-0.1-3.7 0-7.5c-0.1-25.9-8-47.8-26.5-66.3q-1.1-1.1-2.2-2.3c-16.7-15.8-39-21.5-61.4-21-14.5 0.6-26.7 5.7-39.4 12.3zm-322 16c-1 0.9-1 0.9-2.1 1.8-15.3 14.2-24.2 35.1-25.2 55.8-0.1 4.1-0.1 8.1-0.1 12.2q0 3.7 0 7.5 0 2.4 0 4.8 0 1.2 0 2.3c0 3.9 0 3.9 1.7 7.3 2.1 1.6 3.1 1.7 5.7 1.7q1.2 0 2.5 0 1.3 0 2.7-0.1 1.4 0 2.8 0 4.6 0 9.3 0 3.2 0 6.4 0 8.5 0 17-0.1 8.7 0 17.3-0.1 17 0 34-0.1 0.1-1.6 0.2-3.3 0.2-6.2 0.6-12.3 0.1-2.7 0.2-5.3c0.6-12.7 1.5-24.9 5-37.1 0.3-1 0.3-1 0.5-2 4.4-15.7 12.4-29.6 21.5-43-28.6-23.2-74.8-12.1-100 10z"/>
	<path id="Layer" fill-rule="evenodd" class="s0" d="m300 89c16.5 13.2 27.3 30.9 30 52 2 21.8-4.4 41.6-18.1 58.6-12.7 15-30.4 24.1-49.9 26.4-22.5 1.4-43.8-4.3-61.2-19.2-14.3-13.6-23.7-32-24.8-51.8q-0.1-1.2-0.2-2.4c-0.7-20.8 7.2-39.2 20.5-54.9 27.1-28.9 72-31.8 103.7-8.7zm-89 19c-11.6 12.3-17.5 26.9-17.4 43.7 0.6 17.3 8.2 30.5 20.4 42.3 11.3 10.1 25.9 15 41 15 13.6-0.9 25.4-5.5 36-14q1.5-1.2 3-2.3c9.5-8.1 15.4-20.7 18-32.7 1.5-17.2-1.3-32.7-12-46.7-10-11.6-23.4-19.6-38.7-21.8-18.7-1.5-36.4 3.2-50.3 16.5z"/>
	<path id="Layer" fill-rule="evenodd" class="s0" d="m136 140c12 9.2 22 22.1 24.8 37.3 1.6 18-0.6 33.7-11.9 48.5-10.1 11.7-23.5 21-39.3 22.4-19 0.9-34.4-2.5-49.4-15-12.5-11.8-18.4-27.2-19.2-44.1-0.3-13.9 4.8-26.2 13-37.1q0.6-0.9 1.3-1.8c18.8-24.7 56.2-26.1 80.7-10.2zm-68 22.6c-7.7 9.4-10.2 20.5-9 32.4 1.7 8.2 4.3 14.8 10 21q1.1 1.3 2.3 2.6c9 8 19.9 13.3 32.2 12.7 13.1-1.6 23.3-6.7 31.8-16.9 6.9-9.7 9.6-19.6 8.2-31.4-2-11.4-7.6-20.4-16.6-27.7-19.6-13.6-42.7-9.8-58.9 7.3z"/>
	<path id="Layer" fill-rule="evenodd" class="s0" d="m447 137c12 9 19.4 21.5 23 36 2.4 18.3-0.8 34-12 49q-0.6 0.9-1.3 1.8c-8.3 11-22.4 17.7-35.7 20.2-17.5 1.6-33.6-1.5-47.9-12.1-11.1-9.7-20.7-22.8-22.1-37.9-1.1-18.4 1.9-34 14.4-48.4 22-22.9 55.2-26.9 81.6-8.6zm-70.5 22.8c-6.8 9.7-9.3 19.5-8 31.2 2 11.4 7.6 20.4 16.6 27.7 9.9 6.9 20.8 9.8 32.8 7.8 11.6-2.5 20.6-8.3 28.1-17.5 6.5-10.3 8.8-21.4 6.3-33.4-1.9-6.9-4.4-12.3-9.3-17.6-1.1-1.3-1.1-1.3-2.3-2.6-9.3-8.2-20.3-13.3-32.9-12.8-12.7 1.7-23.1 7.3-31.3 17.2z"/>
</svg>