<svg version="1.2" xmlns="http://www.w3.org/2000/svg" viewBox="0 0 420 335" width="420" height="335">
	<title>growth-svg</title>
	<style>
		.s0 { fill: none;stroke: #037aad;stroke-miterlimit:100;stroke-width: 10 } 
	</style>
	<path id="Layer" fill-rule="evenodd" class="s0" d="m140.6 247.6c18.2-0.6 35.7-0.8 53.1-0.9 1.1 0 1.3-0.1 1.5-0.1q1.2-3.7 1.3-7.4c0-10.7-0.1-21.4-0.1-32.2 16.7-0.6 32.6-0.7 48.4-1 2.1 0 4.3-0.5 6.4-0.8 0.7-14 0.7-27.7 0.6-41.3 0.6-1.3 1-1.9 1.5-1.9q28.1-0.2 56.3-0.4c0.4 0.8 0.3 0.8 0.3 0.8 0.3 0.9 1 1.9 1 2.9q0.7 78.4 1.4 156.9c-64.6 1-128.4 1.6-192.2 2.2-11.2 0.1-22.3 0.1-33.4 0.1-0.6-12.1-0.7-23.5-0.8-34.8 1.5-1.3 3-2 4.4-2 16.6-0.2 33.1-0.4 49.7-0.4 0.8-13.4 0.8-26.5 0.6-39.7zm69.9-140.8c4.4 2.6 3.3 6.9 2.3 10.1-0.5 2.1-4 3.8-6.5 4.7-3.2 1.1-6.7 1.1-10.1 1.7-4.4 0-8.2 0.1-11.9 0.1-13-1.7-23.2-6.6-30.1-18.1-4.2 10.1-8.2 19.4-12 28.7-1 2.8-0.4 4.8 2.7 6.4 5 2.4 9.7 5.6 14.5 8.5 2 2 3.6 3.5 5.3 4.9 7.3 5.5 9.9 12.6 10.2 20.8 0.3 10 0.3 20 0.2 30 0.1 6.1-4.8 11.1-10.6 10.8-5.3-0.1-11.2-6-11.3-11.2 0-4.5-0.4-9-0.1-13.4 0.6-12.4-5.6-21.1-15.6-26.7-10-5.5-20.9-9.4-30.9-14.9-4.1-2.2-6.8-6.7-10.2-10.1-3.6-6.2-2.1-11.7-0.3-17.3 2.5-5 4.7-9.4 6.7-13.8 1.5-3.6 3.4-7 4.1-10.6 0.6-3.7 1.7-9-2.7-10.8-3.7-1.4-8.8-1.2-12.6 0.1-5.9 2.1-8.4 8.1-10.6 13.6-2.2 5.1-3.9 10.4-6.2 15.4-2 4.5-5.9 5.3-10.4 4.2-4.4-0.9-8.1-2.9-7.1-8.2 1.2-5.4 2.4-11 4.9-16 4.2-8.3 9.2-16.3 14.1-24.3 3-5 8.4-6.9 13.5-7 10.9-0.1 21.8 0.5 32.7 1.6 8.9 1 12.1 8.3 14.5 15.8 3.8-1 7.5-2.6 11.2-4.2 5.2-1.9 9-1.6 11.6 3.1 2.1 3.4 4.4 6.6 6.5 9.9 7.7 11.7 18.2 15.9 32.2 12.8 2.8-0.1 4.9-0.2 6.9-0.2 2.2 0.9 3.5 2 4.9 3 0.1 0.7 0.2 0.6 0.2 0.6zm-132.6 115.8c1.6-2.9 3-5.9 5-8.4 9.1-11.9 12.7-25.5 12.8-40.3q0-0.5-0.1-1c-0.8-7.2-0.2-7.8 6.9-4.5 3.9 1.8 7.5 4.1 11 6.3 3.9 2.7 4.1 6.9 3.6 11.1q-0.5 4.9-1.1 9.8c-0.5 2.5-0.8 4.3-1 6-2 10.5-6.5 19.3-12 27.4-3.3 4.9-7.6 9.1-11.9 13.4-3.9 4-10.5 4.7-15.5 2.2-0.7-0.8-1-1-1.3-1.2-0.1-0.6-0.1-0.5-0.1-0.5-6-1.6-4.7-6.4-4.8-10.6 3-3.6 5.5-6.6 7.9-9.5 0.6-0.1 0.6-0.2 0.6-0.2zm-61.3-62.4c1.5-4.5 4-8.7 6.3-12.9 0.3-0.4 1.9-0.1 2.9-0.2 8.1 8.3 16.5 15.2 27.6 17.7 2 0.5 4 1.1 6 1.7 4.3 0.6 7.8 0.9 11.7 1.2-2.2 5.2-3.9 10-6.4 14.6-2.1 4.3-6.5 5.9-11.4 3.7-11.6-4.9-23-10.4-34.3-15.7-0.4-0.4-0.6-0.5-0.6-0.5-3.9-2.8-2.9-6.5-1.8-9.6zm263-110.6c0.5 2.1 1.1 3.7 1.1 5.3 0.2 7.1 0.1 14.2 0.2 21.3 0 11.3 0.2 21.6 0.3 32 0.4 4 1 7 1.1 10.1 0.2 8.8 0.2 17.7 0.3 26.7-1.6 0.1-3 0-4.1 0.4-4.2 1.8-5.2-0.9-5.4-4-0.4-11.5-0.6-22.8-0.8-34.2 0-5.6-0.1-10.3-0.1-15-0.5-15.6-0.9-30.3-1.5-45.1 0-10.7-0.1-20.5-0.2-30.3 6.5-1 8.8 0.8 8.9 6.9q0 4.2 0.1 8.4c-0.1 6 0.1 11.1 0.1 16.2-0.1 0.9 0 1.3 0 1.3zm15.1-11c0-4.7-0.1-8.6-0.2-12.4 0-1 0.1-1.9 0.2-3.8 4.3 3.2 8.4 6.2 12.3 9.2 9.3 6.9 19.7 7.1 30.6 5.4 11.5-1.8 23-3.9 34.5-4.8 13.1-1 23.7 5.2 32.2 14.9 1.8 1.8 2.3 5.3 2.4 8 0.3 12.1 0.4 24.1 0.5 36.1-0.1 2.9-0.8 5.9-1.2 9.6-3.7-2.4-7.1-4.8-10.4-7.2-9.7-7.1-20.6-7.7-32-5.7-10.4 1.8-20.9 4.7-31.4 5.1-14 0.6-26.4-4.7-35.2-16.2-1.7-2.3-0.7-6.6-1.1-10.1-0.4-9.9-0.8-19-1.2-28.1zm-131.7-18.7c5 3 5.8 8 5.9 12.8 0.2 7.8-2.1 15-7.8 20.7-6.1 6.2-18.4 4.9-22.5-2.7-4.3-7.9-7-16.4-3.5-25.6 7.3-9.1 18.5-10.7 27.9-5.2zm-90.6 133.8c1.3 1.8 1.5 4.9 1 7.2-0.1 0.9-3.6 1.6-5.5 1.6-16.2-0.7-29.6-7.5-40.3-19.4-0.9-1-1.2-3.6-0.5-4.7 1-1.5 3.1-3.4 4.7-3.3 4.1 0.4 8.3 1.3 12.2 2.8 6.5 2.6 12.9 5.7 19.3 8.7 3.6 2.4 6.8 4.3 9.1 7.1zm-19.2-17.3c-0.8 0-1.6 0.1-2.4 0.2-1.1 0.2-2.3 0.6-3.4 0.9-0.2-1-0.8-2.1-0.5-2.8 0.5-1.1 1.9-3 2.4-2.8 4.8 1.4 9.8 2.4 13.9 5 1.9 1.3 0.7 5-2.6 5.9-2-3.3-3.3-6.4-7.4-6.4z"/>
</svg>