<svg version="1.2" xmlns="http://www.w3.org/2000/svg" viewBox="0 0 500 500" width="500" height="500">
	<title>growth-svg</title>
	<style>
		.s0 { fill: none;stroke: #037aad;stroke-miterlimit:100;stroke-width: 10 } 
	</style>
	<path id="Layer" fill-rule="evenodd" class="s0" d="m185.1 338.4c18.2-0.4 35.6-0.4 53-0.4 1.1 0 1.3-0.1 1.5-0.1q1.3-3.6 1.4-7.3c0.1-10.7 0.1-21.4 0.2-32.2 16.7-0.4 32.6-0.4 48.4-0.5 2.1 0 4.3-0.5 6.4-0.8 0.8-13.9 0.9-27.6 1-41.2 0.6-1.3 1-1.9 1.5-1.9q28.1 0.1 56.2 0.2c0.4 0.8 0.3 0.8 0.3 0.8 0.3 0.9 1 1.9 1 2.9q0 78.3-0.1 156.7c-64.6 0.3-128.3 0.3-192.1 0.3-11.1 0-22.2-0.1-33.3-0.2-0.5-12.1-0.5-23.5-0.5-34.8 1.5-1.3 3-1.9 4.4-1.9 16.6-0.1 33.1-0.1 49.7 0 0.9-13.3 1-26.4 1-39.6zm71.2-139.9c4.3 2.6 3.2 6.9 2.2 10.1-0.6 2.1-4.1 3.8-6.6 4.6-3.2 1.1-6.7 1.1-10.1 1.6-4.4 0-8.2 0-11.9 0-12.9-1.8-23.1-6.8-29.9-18.4-4.3 10.1-8.4 19.3-12.2 28.6-1.1 2.8-0.5 4.8 2.6 6.4 5 2.5 9.6 5.7 14.4 8.6 2 2.1 3.6 3.6 5.3 5 7.2 5.5 9.7 12.7 9.9 20.8 0.2 10 0.1 20 0 30 0 6.1-4.9 11-10.7 10.7-5.3-0.2-11.2-6.1-11.2-11.3 0-4.5-0.3-9 0-13.4 0.7-12.4-5.4-21.1-15.3-26.8-10-5.6-20.8-9.6-30.8-15.2-4-2.2-6.7-6.7-10-10.2-3.6-6.2-2-11.7-0.2-17.2 2.6-5 4.8-9.4 6.8-13.8 1.6-3.5 3.5-6.9 4.2-10.5 0.7-3.7 1.8-9-2.5-10.8-3.7-1.4-8.8-1.3-12.6 0-6 2-8.5 8-10.8 13.5-2.2 5-4 10.3-6.3 15.3-2 4.4-5.9 5.2-10.4 4.1-4.4-1-8.1-3-7-8.3 1.2-5.4 2.5-11 5-15.9 4.3-8.3 9.3-16.2 14.3-24.2 3.1-4.9 8.5-6.8 13.6-6.8 10.9 0 21.8 0.7 32.6 1.9 8.9 1.1 12 8.4 14.4 15.9 3.8-0.9 7.5-2.5 11.2-4.1 5.2-1.8 9-1.5 11.6 3.2 2 3.5 4.3 6.7 6.4 10 7.5 11.7 18 16 32 13.1 2.8-0.1 4.9-0.2 6.9-0.2 2.2 1 3.5 2.1 4.9 3.1 0.1 0.7 0.2 0.6 0.2 0.6zm-133.6 114.3c1.6-2.8 3-5.8 5-8.3 9.2-11.8 13-25.3 13.2-40.1q0-0.5-0.1-1c-0.7-7.2-0.1-7.8 7-4.4 3.8 1.8 7.4 4.1 10.9 6.4 3.9 2.7 4 6.9 3.5 11.1q-0.6 4.9-1.2 9.7c-0.5 2.5-0.8 4.3-1.1 6-2.1 10.5-6.6 19.2-12.2 27.3-3.4 4.8-7.7 9-12 13.2-4 4-10.6 4.6-15.5 2.1-0.7-0.8-1-1-1.3-1.2-0.1-0.6-0.1-0.5-0.1-0.5-6-1.7-4.7-6.5-4.7-10.7 3-3.5 5.5-6.5 8-9.4 0.6-0.1 0.6-0.2 0.6-0.2zm-60.7-62.9c1.6-4.4 4.1-8.6 6.4-12.8 0.3-0.4 1.9-0.1 2.9-0.1 8.1 8.3 16.4 15.3 27.4 17.9 2 0.5 4 1.1 6 1.7 4.3 0.7 7.8 1 11.7 1.4-2.2 5.1-4 9.9-6.5 14.5-2.2 4.2-6.6 5.8-11.5 3.6-11.5-5-22.8-10.6-34.1-16-0.4-0.5-0.6-0.6-0.6-0.6-3.8-2.8-2.8-6.5-1.7-9.6zm263.9-107.9c0.4 2.1 1 3.7 1 5.3 0.1 7.1 0 14.2 0 21.3-0.1 11.3 0 21.6 0 32 0.3 4 0.9 7 1 10.1 0.1 8.8 0 17.6 0 26.6-1.6 0.1-3 0-4.1 0.4-4.2 1.7-5.2-1-5.3-4.1-0.3-11.4-0.4-22.7-0.5-34.1 0.1-5.6 0-10.3 0-15-0.3-15.6-0.6-30.3-1-45 0.1-10.7 0.1-20.5 0.1-30.3 6.5-0.9 8.8 0.9 8.8 7q0 4.2 0 8.4c-0.1 6 0 11 0 16.1-0.1 0.9 0 1.3 0 1.3zm15.1-10.8c0.1-4.7 0-8.6 0-12.4 0-1 0.1-1.9 0.2-3.8 4.3 3.3 8.3 6.3 12.2 9.3 9.2 7 19.6 7.3 30.5 5.7 11.5-1.7 23-3.7 34.5-4.4 13.1-0.9 23.7 5.4 32.1 15.1 1.7 1.9 2.2 5.4 2.3 8.1 0.2 12 0.2 24 0.1 36-0.1 2.9-0.8 5.9-1.3 9.6-3.6-2.5-7-4.9-10.3-7.3-9.6-7.2-20.5-7.9-31.9-6-10.4 1.7-20.9 4.5-31.4 4.8-14 0.4-26.3-5-35-16.5-1.7-2.3-0.7-6.6-1-10.1-0.3-9.9-0.6-19-1-28.1zm-131.4-19.9c5 3 5.8 8 5.8 12.8 0.1 7.8-2.2 15-8 20.6-6.1 6.1-18.4 4.7-22.4-2.9-4.3-8-6.9-16.5-3.3-25.6 7.4-9 18.6-10.5 27.9-4.9zm-91.8 132.7c1.3 1.8 1.5 4.9 1 7.2-0.1 0.9-3.6 1.6-5.5 1.5-16.2-0.8-29.5-7.7-40.1-19.7-0.9-1-1.2-3.6-0.5-4.7 1-1.5 3.2-3.4 4.7-3.3 4.1 0.5 8.3 1.4 12.2 2.9 6.5 2.7 12.8 5.9 19.2 8.9 3.6 2.4 6.8 4.4 9 7.2zm-19-17.5c-0.8 0-1.6 0.1-2.4 0.2-1.1 0.2-2.3 0.6-3.4 0.9-0.2-1-0.8-2.1-0.5-2.8 0.5-1.1 2-3 2.5-2.8 4.7 1.4 9.7 2.5 13.8 5.1 1.9 1.3 0.7 5-2.7 5.9-1.9-3.3-3.2-6.4-7.3-6.5z"/>
</svg>