<svg version="1.2" xmlns="http://www.w3.org/2000/svg" viewBox="0 0 500 500" width="2200" height="2200">
	<title>phone-svg</title>
	<style>
		.s0 { fill: #037aad } 
	</style>
	<path id="Layer" class="s0" d="m301.5 501c-6.6-2.9-12.7-5.8-18.7-8.8-13.8-7-28.1-13.2-41.3-21.2-21.1-12.9-42-26.3-62-40.8-26-18.6-49.1-40.9-70.9-64.1-20.3-21.6-38.3-45.1-54.6-69.9-18.2-27.6-34.6-56.1-47.2-86.7-2.3-5.4-3.6-11.3-5.6-17.3-0.2-10.2-0.2-20.2-0.2-30.7 0.7-2 1.7-3.4 2.1-4.9 4.3-20.5 14.1-37.9 29.1-52.5 8.1-8 16.2-15.9 24-24.1 11.3-12 30.5-13.6 43.8-0.6 18.4 17.9 36.3 36.3 54.5 54.4 6.6 6.6 13.4 13 19.8 19.8 5.5 5.9 9.5 12.6 9.8 21.2 0.4 9.5-3.4 16.9-9.6 23.3-9.7 10-19.7 19.9-29.6 29.7-7.4 7.3-8.7 18.7-2.8 27.4 4.3 6.2 8.7 12.2 12.9 18.4 1.4 1.9 2.7 3.9 3.6 6 2 4.3 0.5 9.7-3.1 12-3.6 2.2-11.2 1.6-13.5-1.6-6.3-8.5-13.1-16.8-18.5-26-9.7-16.7-6.3-37.7 7.7-52 9.2-9.4 18.6-18.6 27.9-27.9 6.2-6.2 6.2-10.1 0.2-16.1q-36.9-37-73.9-73.9c-4.1-4.2-9.2-4.5-13.2-0.4-12.4 12.6-25.4 24.6-36.5 38.2-12.6 15.4-16.4 34-13.9 53.7 2.4 19.1 12.1 35.5 20.9 52 18 33.6 38.9 65.3 63.4 94.5 21 25.2 44.2 48.3 69.5 69.3 33.4 27.8 70.2 50 108.6 69.8 21.9 11.2 44.4 13.6 67.8 6.4 11.7-3.6 21.4-10.6 30-19.1 8.6-8.4 17.2-16.7 25.8-25 6.2-6 6.4-10.6 0.3-16.7q-37.1-37.2-74.2-74.3c-4.7-4.6-9-4.6-13.9 0.3-9.8 9.6-19.6 19.1-29 29-14.5 15.2-38.7 17-53.9 5.9-10.7-7.9-21.7-15.3-32.6-22.9-4-2.9-4.8-11.1-1.7-15 3.4-4.2 9.8-4.2 15.3-0.3 10.1 7.3 20.2 14.6 30.5 21.6 8.5 5.7 18.9 4.6 26.1-2.6 9.5-9.5 19.2-18.9 28.5-28.7 12.9-13.4 32.5-15.1 47-0.5 23.8 24.1 47.9 47.7 71.6 71.9 11.4 11.6 14.7 23.2 7.2 37.6-1.1 2.2-2.6 4.3-4.3 6-10.6 10.8-21.2 21.7-32.1 32.2-11.4 10.9-25.3 17.7-40.4 21.8-1.6 0.5-3.1 1.2-4.9 2-15.3 0.2-30.3 0.2-45.8 0.2z"/>
	<path id="Layer" class="s0" d="m301.5 1c2.3 0.7 4.1 1.5 6 1.9 15.4 3.4 31.2 5.6 46.2 10.2 25.9 8 49 21.5 69.8 38.9 32.8 27.4 55.8 61.5 68.7 102.2 2.7 8.7 4 17.8 6.1 26.8 0.5 2.2 1.5 4.3 2.5 6.7 0.2 12 0.2 23.7 0.2 35.8-1.8 1.4-3.6 2.3-5.4 3.1-7.1 3-12.9-0.9-13.6-8.6-1.1-12.5-1.7-25-4-37.2-6-31.7-19.9-59.8-39.9-85.1-15.4-19.4-33.9-35.3-55.2-47.6-25.1-14.5-52.3-22.9-81.3-25.2-4.7-0.3-9.3-0.7-14-0.9-4.8-0.2-9.1-1.4-10.9-6.3-1.7-4.6-0.3-8.8 3.3-12.3 0.6-0.6 1.1-1.2 1.8-2.1 6.6-0.3 12.9-0.3 19.7-0.3z"/>
	<path id="Layer" class="s0" d="m353.1 98.7c-16.2-10.2-34-14.8-52.5-16.7-5.2-0.5-10.3-0.7-15.5-1.2-5.1-0.4-8.4-3.4-9-7.8-0.8-5.5 1.4-9.8 6.5-11.5 3.1-1 6.6-1.6 9.8-1.3 36.5 2.6 69.2 15.2 96.6 39.5 30.8 27.3 49.1 61.4 53 102.6 0.5 5.2 1.2 10.4 0.7 15.4-0.8 8.7-8.7 12.8-15.4 8-2.1-1.4-4-4.8-4.1-7.3-0.5-26.6-8.2-51.1-22.1-73.7-9.4-15.1-21.4-27.9-36.1-38.1-3.8-2.7-7.7-5.1-11.9-7.9z"/>
	<path id="Layer" class="s0" d="m362.6 156.4c12.5 15.7 18.9 33.5 21.1 53 0.7 6.6 1.2 13.1-6 17-5.3 2.9-11.6 0.5-13.1-5.3-0.4-1.5-0.6-3-0.6-4.5-0.1-21.3-9-39-23.3-54.1-14.1-14.9-32.1-21.9-52.6-22.6-6.3-0.2-10.3-2.4-11.6-6.8-1.3-4.7 0-9.8 4.1-11.7 3.2-1.5 7.1-2.3 10.6-2 28.7 2.5 52.6 14.6 71.4 37z"/>
	<path id="Layer" class="s0" d="m292.6 200.2c-4.6-1.5-9.1-2.3-12.8-4.4-4.4-2.5-4.6-7.1-2.9-11.6 1.9-4.6 5.5-6.5 10.4-6 21.7 2.2 35.5 15.8 38.3 37.5 0.7 5.4-3.5 10.9-9 11.9-5.4 0.9-9.6-1.9-10.7-7.8-1.7-8.4-4.4-15.8-13.3-19.6z"/>
</svg>