<svg version="1.2" xmlns="http://www.w3.org/2000/svg" viewBox="0 0 512 512" width="512" height="512">
	<title>Positioning-svg</title>
	<style>
		.s0 { fill: none;stroke: #037aad;stroke-miterlimit:100;stroke-width: 12 } 
	</style>
	<path id="Layer" fill-rule="evenodd" class="s0" d="m392.5 59.2c14.2 12.3 22.3 28.6 23.8 47.3 0.9 15.2-3.2 29.8-11.9 42.3q1.6 0.3 3.2 0.5c12.4 2 23.3 5.4 31.5 15.6 7.2 10.2 8.6 20.6 7.3 32.9-2.1 10.4-8.3 18.7-16.9 24.7-8.3 5.1-15.9 6.5-25.5 6.4q-1.1 0-2.2 0-2.7-0.1-5.4-0.1c3.2 34.8 10.8 61.3 31 90 7 10 13 20 18 31q0.5 1 1 2.1c8 17.8 14.8 39.2 14 58.9q1.6 0.1 3.3 0.1c9.3 1.3 17.2 6.3 23.1 13.5 6.3 9.4 6.8 18 6.9 29q0.1 1.8 0.1 3.7c0.1 11.1-2.2 20.1-9.4 28.7-7.1 7.2-15.9 11.3-26 11.4q-1.4 0-2.7 0-1.4 0-2.9 0-4.7 0-9.4 0-3.4 0-6.8 0-9.3 0.1-18.5 0.1-7.7-0.1-15.5 0-19.2 0-38.4 0-16.7-0.1-33.4 0-17.2 0-34.4 0-9.6 0-19.2 0-9.1 0.1-18.1 0-3.3 0-6.7 0-4.5 0-9 0-1.3 0-2.7 0c-10.3-0.1-17.8-4.1-25.1-11.1-8.7-9.4-10.7-19.9-10.6-32.4q0-1.5 0-3.1c0-12 3.4-21.7 11.6-30.6 6.2-5.9 13.6-8.4 21.8-10.3q0.1-0.8 0.2-1.7c3.6-31 12.7-59.5 30.5-85.4 19.2-27.9 31.5-54.2 33.1-88.6 0.2-2.3 0.2-2.3 1.2-5.3q-1.6 0.1-3.3 0.2c-14.6 0.4-26.6-1.9-37.7-12.2-8.4-10-11-21-10-34 2.7-12.5 9.4-20.9 19.7-28.2 6.7-3.9 14.8-4.6 22.3-5.8-0.8-1.5-0.8-1.5-1.6-3.1-9.5-18.1-12.9-36.5-6.7-56.4 7-18.4 18.9-31.8 36.8-40 23.4-9.9 49.8-5.5 69.6 9.9zm-69.9 22.4c-8.5 8-12.3 17-12.6 28.6 0.2 11.4 4.3 21 12 29.3 9.2 8.5 19.2 10.8 31.3 10.6 11-0.5 19.3-6.2 26.8-13.9 6.7-8.1 9.8-18 9.3-28.4-1.4-10.6-6-20.1-13.9-27.4-16.7-12.7-37-12.2-52.9 1.2zm-41.6 100.9c-1.9 4-2.6 7-1.6 11.3 2.1 3.8 5 6.4 9 8 2.4 0.3 2.4 0.3 5.1 0.3q1.5 0 3.1 0 1.6 0 3.4 0 1.7 0 3.5 0 4.9 0 9.7 0 3.1 0.1 6.1 0.1 10.6 0 21.2 0 9.8 0 19.7 0 8.4 0.1 16.9 0.1 5 0 10.1 0 5.6 0 11.3 0c1.6 0 1.6 0 3.3 0 6.4 0 10.5-0.6 15.6-4.5 2.1-3.5 3-5.9 3-10-1.3-3.9-3.1-6.1-6-9-3.4-1.7-6.2-2.2-10.1-2.2-1.5-0.1-1.5-0.1-3-0.1q-1.6 0-3.3 0c-1.7 0-1.7 0-3.5 0q-5.7 0-11.4 0-3.9 0-7.9 0-8.3 0-16.6 0-9.6 0-19.2 0-9.3-0.1-18.5 0-3.9 0-7.9-0.1-5.5 0-11 0-1.6 0-3.2 0c-7.2 0.1-12.7 0.5-17.8 6.1zm49.4 46.3c-1 3.1-1.3 5.6-1.5 8.8-2.1 23.6-6.1 45.8-16.5 67.2q-0.4 0.9-0.9 1.9c-4.6 9.3-10.3 17.8-16.3 26.2-16.2 22.9-28.8 49.3-28.8 77.9 55.1 0 110.2 0 167 0-1.4-13.3-1.4-13.3-4.1-26.2q-0.3-1.2-0.6-2.4c-5.6-19.6-15.4-37-27.4-53.4-21.9-30.2-28.9-63.5-31.9-100-12.9 0-25.7 0-39 0zm-96.9 213.1c-1.5 4-1.6 7.6-1.5 11.9q-0.1 1.1-0.1 2.3c0 5.3 0.8 8.7 4.5 12.7 5 2.2 9.5 2.3 14.9 2.3q1.3 0 2.6 0 4.4 0 8.8 0 3.2 0 6.4 0 8.5 0 17.1 0 7.2 0 14.4 0 16.9 0 33.8 0 17.4 0 34.9 0.1 15 0 29.9 0 9 0 17.9 0 8.5 0 16.9 0 3.1 0 6.1 0 4.3 0 8.5 0 1.2 0 2.4 0c5.7 0 9.8-1.2 14.3-5 1.8-3.9 1.6-8 1.5-12.3q0.1-1.4 0.1-2.7c0-4.1-0.1-6.7-2.1-10.4-5.1-4.3-10.8-4.3-17.2-4.2q-1.3-0.1-2.6-0.1-4.4 0-8.8 0-3.2 0-6.3 0-8.5 0-17.1 0-7.1 0-14.2 0-16.9 0-33.7 0-17.3 0-34.7 0-14.9-0.1-29.8 0-8.9 0-17.8-0.1-8.4 0-16.7 0-3.1 0-6.2 0-4.2 0-8.4 0-1.2 0-2.4 0c-5.9 0.1-11.2 0.9-15.4 5.5z"/>
	<path id="Layer" class="s0" d="m171.4 25.1c10.7 5.9 22.2 14.8 27.6 26 2.1 3.7 4.1 4.6 8 5.8q1.1 0.3 2.2 0.6c21.2 6.7 38.8 20.9 50.1 40.1 1.3 3.7 1.5 7.1 1 11-2.2 4.3-4.4 7.2-9 9-4.5 0.7-7.9 0.5-12.1-1.4-3.4-3-5.7-6.3-8.2-10.1-9.7-14.3-24.8-21.4-41.2-25.6-5.7-1.6-9-4.2-11.9-9.3q-0.5-1.2-1-2.5c-6.4-13.2-18.1-19.3-31.6-24.1q-2-0.5-4-1 0 1.3 0 2.7-0.1 5.1-0.2 10.1-0.1 2.2-0.1 4.4-0.1 3.2-0.2 6.3 0 1.9-0.1 3.8c-0.6 5.1-1.9 9.1-5.5 12.8q-1.2 0.9-2.4 1.8-1.4 1-2.7 2.1-1.4 1-2.8 2c-17.6 13.2-27.7 29.6-36.8 49.4-6.6 14.2-17.6 25.2-28.8 36-3.5 3.8-5.8 6.8-5.7 12.1 0.1 3.5 0.4 6.4 2.3 9.5 4 2.4 8.5 2.7 13 2 3.1-1.6 3.1-1.6 6-4q2.3-1.6 4.5-3.1 1.1-0.8 2.2-1.5c4.8-2.9 9.4-3.7 14.9-3.7q1.9-0.1 3.9-0.1 0.9 0 1.9 0c20.8-0.4 38.1-2.7 54.4-16.8 4.5-3.7 7.6-5.3 13.3-5.1 4 0.6 6.3 2.7 9.2 5.3 7.5 12.6 1.4 35.9-1.9 49.4-6.7 26.1-20.8 47.3-38.3 67.4-21.2 24.5-35.9 50.2-39.7 82.8q-0.2 1.6-0.4 3.3-0.5 4.1-1 8.1 0.8 0 1.7 0 20.3-0.2 40.6-0.3 9.9 0 19.7-0.1 9.5-0.1 19-0.1 3.6 0 7.2 0 5.1-0.1 10.1-0.1 1.5 0 3.1 0c4.5 0 7.6 0.1 11.2 3 3.9 4.2 4.9 6.7 4.7 12.6-0.6 4.1-3.1 6.9-6.1 9.6-2.7 1.7-4.2 1.8-7.3 1.8-1.6 0-1.6 0-3.2 0q-1.7 0-3.4 0c-1.8 0-1.8 0-3.7 0q-4.9 0-9.8 0-5.2 0-10.4 0-13.1 0.1-26.3 0.1-14.1 0-28.3 0.1-5.2 0-10.3 0-5.7 0-11.5 0-1.7 0-3.4 0c-5.6 0-9.9 0.1-14.6 3.4-2.8 4.2-2.4 7.9-2.4 12.9q-0.1 1.3-0.1 2.7c-0.1 4.6 0 6.7 2.9 10.5 4.4 3.2 8.4 3 13.8 3q1.2 0 2.5 0 2.7 0.1 5.4 0.1 4.3 0 8.5 0 12.2 0.1 24.4 0.1 7.4 0 14.9 0.1 2.8 0 5.6 0 4 0 8 0.1 1.2-0.1 2.3-0.1c5.2 0.1 8.2 1.3 12.2 4.6 3.3 5.4 3.5 9 2 15-2.1 3.2-3.8 4.8-7 7-3 0.2-5.9 0.3-8.9 0.3q-1.3 0-2.7 0-4.5 0.1-9 0.1-3.2 0-6.3 0-6.6 0-13.2 0-8.5 0-16.9 0.1-6.5 0-13 0-3.1 0-6.2 0.1c-14.1 0.1-26.2-0.2-37-10.6-8.8-10.2-10.1-19.8-10.2-32.8q0-1.8 0-3.6c-0.1-11.1 2.3-20 9.4-28.6 3.8-3.8 8.2-6.6 13-9 1-3 1.3-5.8 1.6-9 3.5-38.5 17.6-69.6 42.4-99q4.6-5.5 9-11 0.8-0.9 1.5-1.9c11.9-14.8 27.5-35 27.5-55.1-1.4 0.5-1.4 0.5-2.9 1-11.6 3.9-22.8 6-35 6-14.6-0.2-14.6-0.2-26.7 7-6.7 5.7-15.8 6.6-24.3 6.3-10.3-1.1-19.8-5.4-26.9-13.1-8.7-10.7-10.3-21.8-9.2-35.2 2.1-10.6 8.5-17.6 16-24.9 11.3-11 18.7-21.9 25.3-36.2 6.3-13.7 14-25.2 24.7-35.9q1.2-1.2 2.5-2.5c2.7-2.7 5.4-5.2 8.2-7.8q1.4-1.3 2.9-2.6c2.4-2.1 2.4-2.1 4.4-3.1q0-1.9 0-3.9 0.1-7.1 0.2-14.2 0.1-3 0.1-6.1 0-4.4 0.1-8.8 0-1.4 0-2.8c0.1-5.7 0.9-8.8 4.6-13.2 12.7-9.7 42.3 2.6 54.1 8.5z"/>
</svg>