<svg version="1.2" xmlns="http://www.w3.org/2000/svg" viewBox="0 0 500 500" width="500" height="500">
	<title>puzzle (2)-svg</title>
	<style>
		.s0 { fill: #037aad } 
	</style>
	<path id="Layer" fill-rule="evenodd" class="s0" d="m38.2 85.8q1.2 0 2.3 0 3.8 0 7.6 0 2.8 0 5.5 0 9-0.1 17.9-0.1 3.1 0 6.2 0 12.8 0 25.6 0 18.4-0.1 36.8-0.1 12.9-0.1 25.8-0.1 7.8 0 15.5-0.1 7.2 0 14.5 0 2.7 0 5.3 0 3.7 0 7.3 0 1.1 0 2.2-0.1c3.6 0.1 5 0.5 7.7 3 2.1 3.5 2.1 6 2.1 10.1q0 1.1 0.1 2.2 0 3.5 0 7.1 0 2.5 0 5 0 5.2 0 10.4 0 6.7 0 13.4 0 5.2 0 10.3 0 2.5 0.1 4.9 0 3.5-0.1 6.9 0 2 0 4c-0.8 4.3-2.2 5.8-5.6 8.4-5.3 0.2-7.8-1.6-11.9-4.7-7.4-4.6-15.8-4.9-24-3.2-7.3 2.2-12.5 6.2-16.2 12.8-3.7 8.2-3.7 16.1-0.9 24.6 3.1 7.5 7.4 11.2 14.6 14.6 8.4 3.2 15.6 2.3 23.8-0.9 2.4-1.1 4.3-2.4 6.3-4 3.3-2.2 3.3-2.2 7-2.3 3.7 1.2 4.4 1.8 6.3 5.1 0.4 2.9 0.4 2.9 0.3 6.4q0 2 0 4 0 2.1 0 4.2 0 2.2 0 4.4 0 5.7-0.1 11.4 0 6.9-0.1 13.7 0 10.5-0.1 20.9c15.8 0 31.7 0 48 0-1-3-2-5.9-3-9-1.5-13.4 0.9-24.9 9.1-35.7 7.8-9.3 18.2-15.5 30.4-16.6 13.6-0.2 24.7 2.9 34.7 12.3 8.4 9 13.2 19.5 13.1 31.9q0 1.9 0.1 4c-0.2 3.2-0.9 5.8-1.9 8.9q-0.4 1.1-0.9 2.4-0.3 0.9-0.6 1.8 1.1 0 2.2 0 10.1-0.1 20.3-0.1 5.2 0 10.4-0.1 6 0 12 0 1.9 0 3.8 0 1.7 0 3.5 0 1.5 0 3.1 0c2.8 0.2 4.4 0.6 6.7 2.2 2 3.2 2.2 5.8 2.2 9.6q0.1 1.7 0.1 3.4 0 1.9-0.1 3.8 0 2 0 4 0.1 5.5 0 10.9 0 5.8 0 11.5 0 9.7 0 19.5 0 9.8 0 19.7 0 31.8-0.2 63.6 0 1.8 0 3.7-0.1 9.4-0.2 18.7-0.1 2.6-0.1 5.3c-0.1 9.5-0.2 16.9-6.5 24.5q-0.9 0.8-1.9 1.6-0.9 0.8-1.8 1.7c-8.2 5-16.7 4.9-26.1 4.9q-2.2 0-4.4 0-6 0-12.1 0-6.5 0-13.1 0-12.8 0-25.5 0-10.4 0-20.8 0c-1.5 0-1.5 0-3 0q-3 0-6 0-28.2 0-56.4 0-24.2 0-48.4 0-28.1 0-56.2 0-3 0-6 0-1.4 0-2.9 0-10.4 0-20.8 0-12.7 0-25.3 0-6.5 0-12.9 0-5.9 0-11.8 0-2.2 0-4.3 0c-11 0-19.6-0.7-27.8-8.4-5.7-6.5-6.8-13.7-6.8-22.2q0-1.8 0-3.7 0-2 0-4.1 0-2.1 0-4.3 0-6 0-11.9 0-6.4-0.1-12.9 0-12.6 0-25.1 0-10.3 0-20.5 0-29 0-58 0-1.6 0-3.2 0-1.5 0-3.1 0-25.4 0-50.8 0-26 0-52.1 0-14.6 0-29.2-0.1-12.5 0-24.9 0-6.4-0.1-12.7 0-5.8 0.1-11.7 0-2.1-0.1-4.2c0-11.5 0-22.6 8.3-31.4 2.9-2 5.8-3.6 9-5 3-1.5 6-1.2 9.2-1.2zm-8.2 18.2c-2.5 3.4-2.2 6.8-2.2 10.9q0 1.1 0 2.1 0 3.6 0 7.1 0 2.5 0 5 0 6.8 0 13.6 0 7.2 0 14.3 0 13.5 0.1 27 0 15.4 0 30.8 0 31.6 0.1 63.2c1.2 0 1.2 0 2.4 0q11.4 0.1 22.8 0.2 5.9 0 11.7 0.1 5.7 0 11.3 0.1 2.2 0 4.3 0 3.1 0 6.1 0.1 1.7 0 3.5 0c3.5 0.6 4.7 1.6 6.9 4.5 0.6 2.8 0.6 2.8 0 6-1.4 2.1-2.9 4-4.5 5.9-4.9 6.7-5.4 14.1-4.5 22.1 2 7.2 6.1 13.6 12.5 17.5 8.2 4.3 15.3 5.8 24.5 3.4 7.7-2.6 13.1-6.8 17-13.9 3.6-7.3 4.1-14.8 1.9-22.6-1.5-4.1-3.9-7.2-6.6-10.6-1.6-2.3-2.2-4-2.3-6.8 0.4-2.3 0.4-2.3 1-4 3.5-1.1 6.8-1.2 10.4-1.2q2 0 4-0.1 2.1 0 4.2 0 2.2 0 4.4-0.1 5.7-0.1 11.4-0.1 6.9-0.1 13.7-0.2 10.5-0.2 20.9-0.3c0-15.8 0-31.7 0-48-4.5 1-4.5 1-9 2-14.1 1.1-25.7-0.8-37-10-8.1-7.4-13.5-17.4-14.2-28.3-0.3-13.8 2.8-24.4 12.2-34.7 8.4-7.4 18.8-12.1 30.1-12.2 1.5-0.1 1.5-0.1 3.1-0.1 3.8 0.3 3.8 0.3 14.8 3.3 0-16.2 0-32.3 0-49q-33.1-0.1-66.2-0.2-15.4 0-30.8 0-13.4-0.1-26.8-0.1-7.1 0-14.2 0-6.7 0-13.3 0-2.5 0-5-0.1-3.3 0-6.6 0-1.9 0-3.8 0c-3.6 0.4-5.5 1.2-8.3 3.4zm258.3 136.6c-6.2 6.8-8.5 14.3-8.3 23.4 1 6.7 3.9 11.5 7.8 17 1.7 2.8 2 4.7 1.2 8-3.3 3.3-5.9 3.4-10.4 3.4q-2 0.1-4 0.1-2.1 0-4.2 0-2.2 0-4.4 0.1-5.7 0-11.4 0.1-6.9 0-13.7 0.1-10.5 0.1-20.9 0.2c0 15.8 0 31.7 0 48 4.9-1 4.9-1 10-2 13.5-1.2 25.5 1.2 36 10 8 7.4 13.5 16.7 14.2 27.7 0.4 14.2-2.2 25.6-12.2 36.3-11.2 9.2-23.7 12.3-38 11-3.3-0.7-6.6-1.3-10-2 0 15.8 0 31.7 0 48q33.3 0.1 66.6 0.2 15.5 0 31 0.1 13.4 0.1 26.9 0.1 7.2 0 14.3 0 6.7 0.1 13.4 0.1 2.5 0 5 0 3.3 0 6.7 0c1.9 0 1.9 0 3.8 0 3.9-0.6 5.5-1.8 8.3-4.5 1.5-2.9 1.1-5.5 1.1-8.7q0-1.1 0-2.2 0-3.5 0-7 0-2.6 0-5.1 0-6.9 0-13.7 0-7.2 0-14.4 0-13.6 0-27.2 0-15.5 0-31-0.1-31.8-0.1-63.7-1.2 0-2.4 0-11.4-0.1-22.8-0.2-5.9 0-11.7-0.1-5.7 0-11.3-0.1-2.2 0-4.3 0-3.1 0-6.1-0.1c-1.7 0-1.7 0-3.5 0-3.5-0.6-4.8-1.6-6.9-4.5-0.2-4.7 1.1-7.3 3.9-10.9 4.8-5.8 5.8-12.7 5.1-20.1-1.3-8.6-5.5-14.3-12-20-12-7.7-26.5-6.1-36.7 3.6zm-260.3 52.4q-0.1 33.3-0.2 66.6 0 15.5-0.1 31-0.1 13.4-0.1 26.9 0 7.2 0 14.3-0.1 6.7-0.1 13.4 0 2.5 0 5 0 3.3 0 6.7 0 1.9 0 3.8c0.6 3.9 1.8 5.5 4.5 8.3 2.9 1.5 5.5 1.1 8.7 1.1q1.1 0 2.2 0 3.5 0 7 0 2.6 0 5.1 0 6.9 0 13.7 0 7.2 0 14.4 0 13.6 0 27.2 0 15.5 0 31 0 31.8-0.1 63.7-0.1 0-1.2 0-2.4 0.1-11.4 0.2-22.8 0-5.9 0.1-11.7 0-5.7 0.1-11.3 0-2.2 0-4.3 0-3.1 0.1-6.1 0-1.7 0-3.5c0.6-3.5 1.6-4.8 4.5-6.9 5.7-0.2 8.8 2 12.9 5.5 6.3 4.4 13.8 4.2 21.1 3.5 7.7-2.1 13.7-6.5 17.7-13.4 4-7.7 5.6-14.7 3-23.2-2.7-7.4-7.1-12.9-13.7-17.4-8.1-3.6-15.5-3.9-23.9-0.9-3.9 1.7-7.1 4.2-10.5 6.7-3.5 1.6-5.9 1-9.6 0.2-1.1-3.5-1.2-6.8-1.2-10.4q0-2-0.1-4 0-2.1 0-4.2 0-2.2-0.1-4.4-0.1-5.7-0.1-11.4-0.1-6.9-0.2-13.7-0.2-10.5-0.3-20.9c-15.8 0-31.7 0-48 0 1 4.5 1 4.5 2 9 1.1 14.3-1 25.4-10 37q-2 2-4 4 0 1 0 2c-0.8 0.2-0.8 0.2-1.6 0.3-4.1 1.2-7.7 3.4-11.4 5.3-8.7 4-21 3.8-29.9 0.8-11.4-4.9-20.1-12.2-25-23.6-4.5-11.6-4-23.1-0.1-34.8-16.2 0-32.3 0-49 0z"/>
	<path id="pazzle1" fill-rule="evenodd" class="s0" d="m365.1 21.7q3.4 1.4 6.8 2.8 4.5 1.9 9 3.8 16.6 6.9 33.5 13.2c9.7 3.6 19.3 7.4 28.9 11.2q4.8 2 9.7 3.9 5 1.9 9.9 3.9 2.8 1.1 5.6 2.2c7.5 3 14 6.1 17.6 13.7 3.4 10.2-0.4 19.6-4.4 29q-0.8 2.1-1.6 4.1-2.5 6.3-5.1 12.5-0.8 1.9-1.5 3.7-3 7.1-5.9 14.2c-3.8 9.1-7.4 18.3-10.9 27.6-4.5 11.8-9.1 23.7-13.8 35.4q-1 2.5-1.9 5-1.4 3.5-2.8 6.9-0.4 1-0.8 2.1c-1.5 3.7-2.7 6.3-6.4 8.1-4.4 0.5-7.6-0.3-11.6-2.1q-1.6-0.6-3.3-1.3-1.7-0.7-3.4-1.5-3.6-1.5-7.3-3-0.9-0.4-1.8-0.8-6.4-2.6-12.8-5.2-1.7-0.6-3.5-1.3-3.2-1.3-6.5-2.5c-1.5-0.6-1.5-0.6-3-1.2q-1.3-0.5-2.6-1c-2.3-1.1-3.6-2.1-5.2-4.1-0.5-3.8-0.7-6 1.6-9.2 2.4-1.8 2.4-1.8 5.4-3.6 4.2-3.1 5.9-6.3 7.7-11.2 0.8-6.2 0.4-11.5-2.7-17-4.8-5.5-9.7-7.7-16.9-8.4-5.3 0.2-9.8 2.2-13.6 5.9-3.9 4.5-5.8 7.9-5.7 13.8 0 1.5 0 1.5 0.1 2.9 0.1 3 0.1 3 0.8 6.7 0.3 3.1 0.3 3.1-0.7 6-2.2 2.3-3.6 2.9-6.8 3.2-5-0.3-9.6-2.6-14.1-4.5q-1.7-0.7-3.5-1.4-3.5-1.4-7.1-2.9-5.5-2.3-11-4.5-3.5-1.4-7-2.9-1.6-0.6-3.3-1.3-1.5-0.7-3.1-1.3-1.3-0.6-2.7-1.1c-2.4-1.2-4.4-2.4-6.4-4.2-1.4-7.9 2.3-14.8 5.3-22q0.8-1.9 1.5-3.7 1.5-3.6 2.9-7.1 2.3-5.6 4.3-11.2-1.1-0.3-2.3-0.7c-11.6-3.5-20.6-8.9-27-19.4-4.4-8.5-5.1-17.6-3.1-26.9 3.5-10.4 9.8-17.9 19.4-23 7.9-3.9 17.4-4.5 25.9-2.2 4.8 1.8 8.8 4.3 13.1 7.2q0.6-1.4 1.1-2.8 2.1-5.2 4.2-10.4 0.9-2.2 1.8-4.4 2.6-6.3 5.2-12.6 0.9-2.4 1.9-4.8 0.5-1.2 1-2.4 0.4-1 0.8-2c5.5-8.5 21 1.1 28.1 4.1zm-17.1 10.3c-3.4 7-6.5 14.1-9.3 21.4q-0.4 1.1-0.8 2.2-1.7 4.4-3.4 8.9-1.2 3.3-2.5 6.5-0.3 1-0.7 2.1c-1.1 2.7-1.9 4.6-4.3 6.3-3.3 1-4.8 0.8-8-0.4-2-2.2-3.6-4.4-5.3-6.8-3.5-4.6-7.1-6.9-12.7-8.2-6.1-0.7-10.8 0.8-16 4-3.8 3.3-5.8 7.1-7 12q-0.4 1.6-0.8 3.3c-0.3 6.2 1.3 10.9 5.2 15.6 7.3 6 12.2 6.4 21.6 6.1 1.7-0.3 1.7-0.3 3.5-0.6 2.9-0.5 4.1-0.1 6.5 1.6 1.8 3.6 0.8 7.3 0 11-1.7 4.9-3.7 9.7-5.8 14.4q-0.8 1.9-1.6 3.9-1.6 3.6-3.2 7.3-1.9 4.6-3.8 9.2-0.5 1.1-0.9 2.3c-0.8 1.9-0.8 1.9-0.7 3.9q6 2.4 12.1 4.9 1.7 0.7 3.4 1.4c5.4 2.2 10.8 4.3 16.5 5.7 0.2-1.1 0.2-1.1 0.5-2.3 2.6-11.6 6.6-19.7 16.5-26.7 9.8-5.3 19.3-5.9 30-3 9 3.2 15.6 9.3 20 17.7 4.1 9.5 4.6 19.7 1.2 29.5-1.1 2.6-2.1 4.7-3.8 7-1.6 1.7-1.6 1.7-1.4 3.8 9.9 4 19.8 7.9 30 12 1.8-2.7 2.9-5 4.1-7.9 0.7-1.5 0.7-1.5 1.3-3.1q0.7-1.8 1.5-3.6 0.3-0.9 0.7-1.8c12.6-30.5 24.9-61 36.4-91.9 1.3-3.5 2.8-7.1 4.2-10.6 0.9-2.3 0.9-2.3 1.2-5.4-1.7-3.3-2.7-3.5-6-5q-1.5-0.6-3.1-1.3c-6.1-2.6-12.2-5-18.4-7.5q-3.4-1.3-6.8-2.7-2.5-1-5-2-10.3-4.1-20.6-8.2c-26.7-10.8-26.7-10.8-53.6-21.2q-1.5-0.6-3.1-1.3c-3.8-1.7-3.8-1.7-7.8-2.5z"/>
</svg>