<svg version="1.2" xmlns="http://www.w3.org/2000/svg" viewBox="0 0 2200 2200" width="2200" height="2200">
	<title>www_internet_globe_grid-ai</title>
	<style>
		.s0 { fill: #037aad } 
	</style>
	<g id="Objects">
		<g id="&lt;Group&gt;">
			<path id="Shadow" class="s0" d="m1628 2048.8c0 20.7-236.4 37.4-528 37.4-291.6 0-528-16.7-528-37.5 0-20.7 236.4-37.5 528-37.5 291.6 0 528 16.8 528 37.5z"/>
			<g id="&lt;Group&gt;">
				<path id="&lt;Compound Path&gt;" fill-rule="evenodd" class="s0" d="m2083 1028.3v9.9c0 75.4-29.3 146.2-82.6 199.4q-2.4 2.4-4.8 4.7c-22.8 98.1-61.4 191.2-114.9 277-54.1 86.7-121.9 163.4-201.3 228-80.2 65.2-169.9 115.9-266.7 150.9-100.1 36.2-205.3 54.6-312.7 54.6-107.4 0-212.6-18.4-312.7-54.6-96.8-35-186.5-85.7-266.7-150.9-79.4-64.6-147.2-141.3-201.3-228-53.5-85.8-92.1-178.9-114.9-277q-2.4-2.3-4.8-4.7c-53.3-53.2-82.6-124-82.6-199.4v-9.9c0-75.4 29.3-146.2 82.6-199.4q2.4-2.4 4.8-4.7c22.8-98.1 61.4-191.2 114.9-277 54.1-86.7 121.9-163.4 201.3-228 80.2-65.2 169.9-115.9 266.7-150.9 100.1-36.2 205.3-54.5 312.7-54.5 107.4 0 212.6 18.3 312.7 54.5 96.8 35 186.5 85.7 266.7 150.9 79.4 64.6 147.2 141.3 201.3 228 53.5 85.8 92.1 178.9 114.9 277q2.4 2.3 4.8 4.7c53.3 53.2 82.6 124 82.6 199.4zm-253.2-449.3q-20.8-33.4-44.5-64.6c-91.1 32.7-187.6 58.8-287.5 77.8 13 49.1 23.8 100.7 32.3 154.1h270.9c41.4 0 81.5 8.9 118.1 25.7-21.5-67.6-51.4-132.3-89.3-193zm-699.8-10.3c98.6-1.4 196.3-9.5 291.3-24.2q-1.9-6-3.9-12c-24.7-74.3-54.6-139.5-88.7-193.8-33.8-53.6-70.8-95.1-109.9-123.2-29-20.8-58.7-33.9-88.8-39.1zm-258.7-230c-34.1 54.3-64 119.5-88.7 193.8q-2 5.9-3.9 11.9c95 14.8 192.7 22.9 291.3 24.3v-392.4c-30.1 5.3-59.8 18.4-88.8 39.2-39.1 28.1-76.1 69.5-109.9 123.2zm-140.6 407.5h339.3v-117.5c-104.4-1.5-207.9-10.2-308.4-26.2-12.4 45.8-22.7 93.9-30.9 143.7zm399.3 0h339.3c-8.2-49.8-18.5-97.9-30.9-143.7-100.5 16-204 24.7-308.4 26.2zm262.3-521.6c-34.3-12.4-69.2-22.5-104.6-30.4 32.7 29.8 63.4 67.5 91.8 112.5 36.7 58.4 68.6 127.9 94.8 206.8q3.5 10.2 6.7 20.7c91.5-17.1 180-40.3 263.9-69.3-31.6-35.8-66.1-68.9-103.4-99.2-74.9-60.9-158.8-108.4-249.2-141.1zm-937.2 240.3c83.9 29 172.4 52.2 263.9 69.3q3.2-10.5 6.7-20.7c26.2-78.9 58.1-148.4 94.8-206.8 28.4-45 59.1-82.7 91.8-112.5-35.4 7.9-70.3 18-104.6 30.4-90.4 32.7-174.3 80.2-249.2 141.1-37.3 30.3-71.9 63.4-103.4 99.2zm-174.2 307c36.6-16.8 76.7-25.7 118.1-25.7h270.9c8.5-53.4 19.3-105 32.3-154.1-99.9-18.9-196.4-45.1-287.5-77.8q-23.7 31.2-44.5 64.6c-37.9 60.7-67.8 125.4-89.3 193zm89.3 715.5q20.8 33.4 44.5 64.6c91.1-32.7 187.6-58.8 287.5-77.8-13-49.1-23.8-100.6-32.3-154h-270.9c-41.4 0-81.5-8.9-118.1-25.8 21.5 67.6 51.4 132.3 89.3 193zm699.8 10.3c-98.6 1.4-196.3 9.5-291.3 24.3q1.9 6 3.9 11.9c24.7 74.3 54.6 139.5 88.7 193.8 33.8 53.6 70.8 95.1 109.9 123.2 29 20.8 58.7 33.9 88.8 39.2zm258.7 229.9c34.1-54.3 64-119.5 88.7-193.8q2-5.9 3.9-11.9c-95-14.7-192.7-22.9-291.3-24.2v392.3c30.1-5.2 59.8-18.3 88.8-39.1 39.1-28.2 76.1-69.6 109.9-123.3zm140.6-407.5h-339.3v117.6c104.4 1.4 207.9 10.1 308.4 26.1 12.4-45.8 22.7-93.9 30.9-143.7zm-399.3 0h-339.3c8.2 49.8 18.5 97.9 30.9 143.7 100.5-16 204-24.7 308.4-26.1zm-262.3 521.5c34.3 12.4 69.2 22.5 104.6 30.4-32.7-29.8-63.4-67.5-91.8-112.5-36.7-58.4-68.6-127.9-94.8-206.8q-3.5-10.2-6.7-20.7c-91.5 17.1-180 40.3-263.9 69.3 31.5 35.8 66.1 68.9 103.4 99.2 74.9 60.9 158.8 108.4 249.2 141.1zm937.2-240.3c-83.9-29-172.4-52.2-263.9-69.3q-3.2 10.5-6.7 20.7c-26.2 78.9-58.1 148.4-94.8 206.8-28.4 45-59.1 82.7-91.8 112.5 35.4-7.9 70.3-18 104.6-30.4 90.4-32.7 174.3-80.2 249.2-141.1 37.3-30.3 71.8-63.4 103.4-99.2zm174.2-307c-36.6 16.8-76.7 25.8-118.1 25.8h-270.9c-8.5 53.3-19.3 104.9-32.3 154 99.9 19 196.4 45.1 287.5 77.8q23.7-31.2 44.5-64.6c37.9-60.7 67.8-125.4 89.3-193zm103.9-266.2c0-59.3-23.1-115.1-65-157-42-42-97.7-65-157-65h-1402c-59.3 0-115 23-157 65-41.9 41.9-65 97.7-65 157v9.9c0 59.3 23.1 115.1 65 157 42 42 97.7 65.1 157 65.1h1402c59.3 0 115-23.1 157-65.1 41.9-41.9 65-97.7 65-157z"/>
				<path id="&lt;Path&gt;" class="s0" d="m684.2 1090.1h-1.5l-49.7-192.9h-65.9l-50 192.9h-1.5l-41.6-192.9h-81.1l80.5 292.1h77.2l48.7-175.1h1.5l48.6 175.1h77.1l80.4-292.1h-80.8z"/>
				<path id="&lt;Path&gt;" class="s0" d="m1177 1090.1h-1.5l-49.8-192.9h-65.9l-50 192.9h-1.4l-41.7-192.9h-81.1l80.5 292.1h77.3l48.6-175.1h1.5l48.7 175.1h77l80.5-292.1h-80.9z"/>
				<path id="&lt;Path&gt;" class="s0" d="m1669.7 1090.1h-1.5l-49.7-192.9h-66l-49.9 192.9h-1.5l-41.6-192.9h-81.1l80.4 292.1h77.3l48.6-175.1h1.5l48.7 175.1h77l80.5-292.1h-80.9z"/>
			</g>
		</g>
	</g>
</svg>